<svg width="208" height="173" viewBox="0 0 208 173" fill="none" xmlns="http://www.w3.org/2000/svg">
<g clip-path="url(#clip0)">
<path d="M52.7572 50.5404C52.7572 50.5404 23.0276 97.8428 38.3753 107.197C53.723 116.552 75.5989 130.379 75.5989 130.379" stroke="#262626" stroke-width="1.5" stroke-linecap="round" stroke-linejoin="round"/>
<path fill-rule="evenodd" clip-rule="evenodd" d="M50.6208 37.0989C48.2598 40.6643 47.3989 49.1965 50.4936 53.9344C53.2316 58.1261 56.5582 56.3319 58.0919 55.1277C59.4794 54.3366 61.5623 53.0119 62.0214 51.9581C62.7237 50.3461 62.6495 48.5437 60.7945 48.1571C60.7945 48.1571 62.9069 45.8235 61.6097 44.2831C60.9705 43.5508 60.1369 43.0143 59.2056 42.7358C59.2056 42.7358 60.8592 40.519 59.2729 38.7648C58.0101 37.3689 56.8889 37.5979 56.8889 37.5979C56.8889 37.5979 57.5302 35.671 54.9893 34.2028C53.6974 33.4693 51.9075 34.3738 50.7069 36.7053C50.6601 36.8021 50.632 36.9346 50.6208 37.0989Z" fill="#00BC87"/>
<path d="M59.2304 45.5265L56.0147 50.8566" stroke="#262626" stroke-width="1.23413" stroke-linecap="round" stroke-linejoin="round"/>
<path d="M56.5941 42.4686L53.2579 48.13" stroke="#262626" stroke-width="1.23413" stroke-linecap="round" stroke-linejoin="round"/>
<path d="M54.0278 40.0956L51.7743 43.8421" stroke="#262626" stroke-width="1.23413" stroke-linecap="round" stroke-linejoin="round"/>
<path d="M71.1069 300.094C131.055 310.14 178.594 284.957 190.633 235.092C199.438 198.611 177.107 146.685 164.401 103.04C149.647 52.3725 114.845 55.5257 114.845 55.5257" fill="#231F20"/>
<path d="M126.84 56.7661C134.245 59.3701 140.749 64.3684 144.785 77.8883C147.574 87.243 147.346 102.429 153.171 133.838C157.182 155.472 178.853 211.076 154.868 258.276C137.176 293.09 97.7519 307.073 64.5105 299.051C19.4029 288.166 0.724253 239.097 17.7862 182.21C28.4306 146.71 83.331 75.673 93.1856 65.9666C103.663 55.6554 117.282 53.3907 126.84 56.7661Z" fill="#00BC87"/>
<mask id="mask0" mask-type="alpha" maskUnits="userSpaceOnUse" x="11" y="55" width="155" height="247">
<path d="M126.84 57.3833C134.245 59.9873 140.749 64.9856 144.785 78.5055C147.574 87.8602 147.346 103.046 153.171 134.455C157.182 156.089 178.853 211.693 154.868 258.893C137.176 293.708 97.7519 307.69 64.5105 299.669C19.4029 288.783 0.724253 239.714 17.7862 182.827C28.4306 147.327 83.331 76.2902 93.1856 66.5838C103.663 56.2726 117.282 54.0079 126.84 57.3833Z" fill="#00BC87"/>
</mask>
<g mask="url(#mask0)">
<path d="M56.8587 77.0369C56.8587 77.0369 87.2431 98.6342 78.4561 152.992C71.1685 198.186 34.6443 212.008 20.0815 282.051" stroke="#231F20" stroke-width="1.23413" stroke-miterlimit="10"/>
<path d="M21.2171 93.3953C45.7578 122.027 49.849 144.229 41.6666 175.194C34.2125 203.406 -2.42279 237.585 -17.9297 242.392" stroke="#231F20" stroke-width="1.23413" stroke-miterlimit="10"/>
<path d="M154.917 100.004C108.68 132.092 35.391 279.743 47.2264 276.004C59.0617 272.265 88.7118 225.287 88.7118 225.287C115.042 179.087 167.45 140.866 167.45 140.866" stroke="#231F20" stroke-width="1.23413" stroke-miterlimit="10"/>
<path style="mix-blend-mode:lighten" opacity="0.5" d="M108.363 149.792C138.477 169.187 139.707 227.552 110.076 253.17C83.2048 276.411 53.7475 258.096 49.872 229.356C46.94 207.631 53.9386 179.685 64.5021 166.577C76.3137 151.935 95.2254 141.324 108.363 149.792Z" fill="url(#paint0_linear)"/>
<g style="mix-blend-mode:lighten" opacity="0.8">
<path d="M105.974 147.403C136.088 166.798 137.318 225.163 107.688 250.781C80.8161 274.022 51.3588 255.708 47.4834 226.967C44.5514 205.243 51.5499 177.296 62.1135 164.189C73.9251 149.547 92.8367 138.935 105.974 147.403Z" fill="white"/>
</g>
</g>
<path d="M89.292 84.5217C89.292 84.5217 90.631 81.9547 93.7966 83.5529" stroke="#262626" stroke-width="1.23413" stroke-linecap="round" stroke-linejoin="round"/>
<path d="M126.112 87.0088C126.45 86.8887 126.807 86.837 127.165 86.857C127.522 86.8769 127.872 86.968 128.194 87.1248C128.516 87.2817 128.803 87.5013 129.039 87.7706C129.275 88.04 129.455 88.3537 129.568 88.6934" stroke="#262626" stroke-width="1.23413" stroke-linecap="round" stroke-linejoin="round"/>
<path d="M106.533 109.297C100.924 108.717 100.615 104.626 100.522 104.052C100.43 103.478 100.35 102.941 100.985 102.491C101.344 102.276 101.756 102.17 102.174 102.186C102.591 102.201 102.995 102.337 103.336 102.577C104.443 103.363 105.737 103.844 107.088 103.972C108.438 104.125 109.804 103.912 111.043 103.355C111.428 103.191 111.852 103.142 112.264 103.214C112.676 103.286 113.058 103.477 113.364 103.762C113.888 104.33 113.364 105.366 113.148 105.823C112.401 107.52 111.056 109.772 106.533 109.297Z" fill="#262626"/>
<path d="M110.377 108.377C110.525 107.822 109.192 106.687 107.909 106.526C107.144 106.452 106.761 107.507 106.761 107.507C106.761 107.507 106.477 106.39 105.706 106.31C104.435 106.175 102.824 106.927 102.787 107.477C102.787 107.816 104.478 108.834 106.613 109.007C109.05 109.217 110.297 108.674 110.377 108.377Z" fill="#E75C8A"/>
<path d="M93.6012 98.8661C92.9577 98.9793 92.4403 99.1615 91.8607 99.2765C91.3434 99.4587 90.773 99.2461 90.592 98.8476C90.5335 98.6493 90.4768 98.3854 90.4183 98.1871C90.2283 95.8213 90.7788 89.8699 94.7625 89.3911C98.8741 88.9158 100.38 94.5969 100.636 96.8989C100.691 97.2283 100.682 97.5559 100.609 97.8817C100.532 98.3385 100.011 98.6518 99.4368 98.5702C97.6507 98.3236 95.6616 98.4647 93.6012 98.8661Z" fill="#212121"/>
<path fill-rule="evenodd" clip-rule="evenodd" d="M97.7255 93.3257C97.6432 93.9791 96.9887 94.4854 96.3506 94.402C95.7126 94.3186 95.219 93.6491 95.3013 92.9957C95.3836 92.3423 96.0381 91.8361 96.6761 91.9195C97.3142 92.0029 97.8078 92.6723 97.7255 93.3257Z" fill="#E6E7E8"/>
<path d="M117.427 100.749C116.797 100.621 116.23 100.499 115.663 100.377C115.09 100.32 114.682 99.8844 114.728 99.4278C114.753 99.1669 114.773 98.9712 114.862 98.7166C115.534 96.4779 118.491 91.3039 122.356 92.5427C126.343 93.8594 125.322 99.6203 124.644 101.924C124.548 102.244 124.395 102.492 124.235 102.806C124.005 103.178 123.362 103.18 122.878 102.869C121.293 101.988 119.433 101.277 117.427 100.749Z" fill="#212121"/>
<path fill-rule="evenodd" clip-rule="evenodd" d="M123.475 96.7015C123.099 97.257 122.372 97.4486 121.767 97.0594C121.226 96.6765 121.043 95.9338 121.426 95.3131C121.802 94.7576 122.529 94.5661 123.133 94.9552C123.738 95.3444 123.795 96.0745 123.475 96.7015Z" fill="#E6E7E8"/>
<path d="M97.2411 5.37667C96.7867 5.16782 96.3059 4.99842 95.7987 4.86847C95.3057 4.74504 94.8063 4.63585 94.3005 4.5409C93.8011 4.43171 93.3049 4.3154 92.8119 4.19197C92.3189 4.06855 91.8381 3.89914 91.3695 3.68376C91.2275 3.6185 91.0848 3.53573 90.9415 3.43546C90.8188 3.32748 90.8056 3.16671 90.9021 2.95314C90.9663 2.81077 91.0874 2.6945 91.2653 2.60433C91.4638 2.50646 91.6373 2.48303 91.7857 2.53406L97.8703 4.32487C97.9102 4.27445 97.9701 4.19881 98.0499 4.09797C98.1362 3.98288 98.2263 3.87818 98.3204 3.78385C98.435 3.68182 98.5542 3.60767 98.678 3.56141C98.8082 3.5009 98.9301 3.49676 99.0437 3.54897C99.2141 3.62729 99.3297 3.73201 99.3906 3.86312C99.4514 3.99423 99.4916 4.13306 99.5112 4.27959C99.5372 4.41189 99.5593 4.5338 99.5775 4.64534C99.5958 4.75687 99.6475 4.83221 99.7327 4.87137L99.9031 4.94969C100.052 5.00072 100.288 5.08379 100.614 5.1989C100.945 5.29978 101.32 5.42023 101.736 5.56026C102.168 5.70682 102.62 5.86317 103.094 6.02931C103.574 6.18122 104.026 6.33757 104.451 6.49836C104.882 6.64492 105.26 6.77576 105.585 6.89087C105.917 6.99174 106.16 7.06058 106.315 7.09737C106.358 7.11695 106.457 7.16263 106.613 7.23443C106.79 7.29851 106.914 7.34687 106.985 7.3795C106.863 7.65002 106.611 7.80929 106.229 7.85732C105.868 7.89764 105.431 7.87744 104.919 7.79673C104.428 7.7083 103.889 7.57242 103.303 7.38906C102.737 7.198 102.182 7.00308 101.638 6.80431C101.107 6.61206 100.615 6.42902 100.162 6.25517C99.7235 6.08784 99.3809 5.97332 99.1344 5.91161C98.6211 6.89638 98.1667 7.95976 97.7711 9.10175C97.3897 10.2503 97.0264 11.4157 96.6811 12.598C96.3501 13.7869 96.0081 14.9621 95.6551 16.1237C95.3021 17.2852 94.9006 18.3643 94.4505 19.361C94.4173 19.5864 94.3679 19.7528 94.3023 19.8602C94.2509 19.9741 94.18 20.0361 94.0897 20.0462C93.9994 20.0562 93.8833 20.0286 93.7413 19.9634C93.5993 19.8981 93.4321 19.8127 93.2397 19.7071C93.3292 19.1292 93.4714 18.4725 93.6663 17.7369C93.8819 16.9936 94.1239 16.2108 94.3923 15.3885C94.6671 14.5521 94.9516 13.6942 95.2457 12.8151C95.5539 11.9424 95.859 11.0769 96.1609 10.2184C96.4627 9.36003 96.7414 8.53394 96.997 7.74018C97.2525 6.94642 97.4617 6.21733 97.6245 5.55289L97.2411 5.37667ZM103.197 11.8533L103.274 11.6824C103.338 11.54 103.433 11.4632 103.558 11.452C103.697 11.4472 103.838 11.4775 103.98 11.5427C104.093 11.595 104.193 11.6581 104.28 11.7323C104.373 11.7922 104.416 11.9064 104.408 12.0749C104.354 12.3081 104.262 12.6266 104.131 13.0306C104.007 13.4204 103.87 13.8561 103.721 14.3378C103.572 14.8196 103.41 15.3297 103.236 15.8684C103.082 16.3994 102.93 16.9057 102.781 17.3874C102.653 17.8614 102.544 18.2927 102.454 18.6813C102.364 19.0699 102.32 19.3763 102.322 19.6005C102.897 18.2141 103.473 17.052 104.051 16.1141C104.635 15.1619 105.246 14.4542 105.884 13.9909C106.542 13.5199 107.239 13.307 107.973 13.3521C108.727 13.3895 109.548 13.6981 110.435 14.2777C110.876 14.4801 110.99 14.8162 110.778 15.286C110.694 15.4711 110.515 15.5438 110.242 15.504C109.975 15.45 109.686 15.3687 109.375 15.2601C109.07 15.1373 108.769 15.0248 108.472 14.9228C108.175 14.8207 107.937 14.7973 107.758 14.8524C107.118 14.9022 106.557 15.1772 106.074 15.6773C105.605 16.1839 105.145 16.8234 104.693 17.5958C104.242 18.3681 103.776 19.2286 103.296 20.1772C102.837 21.1181 102.301 22.0581 101.689 22.9972C101.624 23.1395 101.519 23.2202 101.374 23.2392C101.228 23.2582 101.07 23.2285 100.899 23.1502C100.743 23.0784 100.603 22.971 100.479 22.828C100.369 22.6915 100.304 22.5325 100.283 22.351L103.197 11.8533ZM112.927 28.6527L111.415 17.3066C111.407 17.2859 111.415 17.2295 111.439 17.1376C111.47 17.0314 111.499 16.9498 111.524 16.8928C111.608 16.7078 111.707 16.5642 111.822 16.4622C111.957 16.3524 112.159 16.3596 112.429 16.4836C112.486 16.5097 112.569 16.5909 112.679 16.7274C112.795 16.8496 112.855 16.9457 112.858 17.0157C112.945 17.6576 113.014 18.3598 113.064 19.1221C113.128 19.891 113.2 20.6631 113.278 21.4385C113.371 22.2204 113.488 22.9875 113.628 23.7397C113.775 24.4777 113.979 25.1472 114.239 25.7482L118.53 17.6114C118.544 17.6179 118.58 17.6343 118.637 17.6604C118.714 17.6788 118.767 17.6945 118.795 17.7075C118.923 17.7663 119.041 17.8464 119.15 17.9478C119.265 18.035 119.315 18.17 119.301 18.3527C119.084 18.8718 118.798 19.5054 118.443 20.2535C118.103 21.0081 117.738 21.7775 117.35 22.5617C116.975 23.3525 116.607 24.1116 116.244 24.8389C115.902 25.5585 115.624 26.1357 115.411 26.5705C115.268 26.8488 115.047 27.2628 114.747 27.8128C114.462 28.3692 114.13 28.9903 113.751 29.6761C113.381 30.3827 112.98 31.1183 112.549 31.8829C112.132 32.6542 111.735 33.3826 111.357 34.0684C110.978 34.7542 110.639 35.3721 110.34 35.922C110.033 36.4861 109.808 36.8898 109.664 37.1331L108.557 36.624L112.927 28.6527ZM125.845 34.0224C125.977 33.8426 126.129 33.6027 126.299 33.3025C126.468 33.0023 126.69 32.6058 126.964 32.1128C127.253 31.6263 127.595 31.0189 127.993 30.2904C128.405 29.5684 128.912 28.6925 129.514 27.6626C130.116 26.6328 130.816 25.4244 131.614 24.0374C132.432 22.6427 133.399 21.0327 134.515 19.2073C134.593 19.0715 134.696 19.0154 134.822 19.0391C134.963 19.0694 135.083 19.1074 135.182 19.1531C135.339 19.2249 135.441 19.3405 135.489 19.5001C135.537 19.6597 135.564 19.827 135.571 20.002C135.592 20.1836 135.602 20.369 135.602 20.5582C135.603 20.7475 135.623 20.9115 135.663 21.0503C135.657 21.443 135.629 21.8856 135.578 22.378C135.541 22.8769 135.499 23.4076 135.451 23.97C135.403 24.5324 135.351 25.1019 135.297 25.6786C135.248 26.241 135.204 26.7962 135.162 27.3444C135.126 27.8783 135.09 28.3773 135.052 28.8412C135.034 29.2974 135.032 29.683 135.044 29.998C135.207 30.0556 135.452 30.0998 135.781 30.1307C136.117 30.1473 136.47 30.1808 136.842 30.2313C137.213 30.2817 137.568 30.3503 137.906 30.4369C138.245 30.5235 138.507 30.6443 138.695 30.7991C138.888 30.9398 138.969 31.1228 138.935 31.3482C138.916 31.5802 138.725 31.8706 138.362 32.2194C138.263 32.1737 138.177 32.117 138.104 32.0494C138.038 31.9675 137.969 31.8928 137.897 31.8251C137.831 31.7432 137.755 31.6652 137.668 31.5911C137.602 31.5092 137.513 31.4422 137.399 31.3899C137.328 31.3573 137.145 31.325 136.851 31.2929C136.578 31.2531 136.276 31.2178 135.947 31.187C135.625 31.1419 135.335 31.1202 135.077 31.1219C134.825 31.1095 134.69 31.1246 134.67 31.1673L133.527 37.6304L132.606 38.1874C132.551 37.6636 132.558 37.0991 132.625 36.494C132.713 35.8812 132.805 35.2787 132.901 34.6867C133.003 34.0804 133.079 33.5135 133.129 32.9861C133.199 32.451 133.191 31.9746 133.105 31.557C132.743 31.5623 132.333 31.5201 131.876 31.4305C131.42 31.3409 130.964 31.2863 130.51 31.2667C130.062 31.2329 129.639 31.2788 129.239 31.4046C128.86 31.5226 128.545 31.7821 128.296 32.1832C128.19 32.341 128.059 32.5557 127.902 32.8274C127.759 33.1056 127.616 33.3664 127.472 33.6096C127.288 33.9032 127.107 34.2073 126.931 34.5217L125.845 34.0224ZM133.974 22.5692L133.768 22.9127C133.644 23.1482 133.494 23.4232 133.318 23.7376C133.148 24.0378 132.965 24.3489 132.768 24.6711C132.592 24.9855 132.445 25.2533 132.328 25.4746C131.897 26.2393 131.462 26.9936 131.023 27.7375C130.605 28.4737 130.213 29.2476 129.846 30.0591C130.116 30.1831 130.416 30.2781 130.747 30.3439C131.091 30.4163 131.431 30.4608 131.767 30.4775C132.108 30.4799 132.432 30.4478 132.736 30.3814C133.061 30.3073 133.339 30.1857 133.569 30.0166C133.681 29.4661 133.784 28.8948 133.88 28.3027C133.997 27.703 134.099 27.0967 134.187 26.4838C134.282 25.8568 134.356 25.2374 134.409 24.6258C134.462 24.0141 134.495 23.4102 134.507 22.814C134.499 22.7932 134.462 22.7419 134.396 22.66C134.337 22.5639 134.196 22.5337 133.974 22.5692ZM138 29.7318C138.006 29.7176 138.009 29.693 138.007 29.658C138.026 29.6152 138.039 29.5868 138.046 29.5725C138.142 29.359 138.282 29.2771 138.465 29.3269C138.655 29.3626 138.821 29.413 138.963 29.4783C139.119 29.55 139.235 29.7669 139.312 30.1288C139.395 30.4764 139.458 30.9264 139.5 31.4787C139.563 32.0233 139.606 32.6107 139.63 33.2407C139.669 33.8773 139.71 34.5067 139.755 35.129C139.82 35.7437 139.905 36.3156 140.009 36.8447C140.127 37.3805 140.28 37.8029 140.466 38.112C141.136 36.8555 141.698 35.7814 142.152 34.8898C142.606 33.9982 142.982 33.2424 143.279 32.6225C143.59 32.0091 143.826 31.5244 143.987 31.1684C144.154 30.7983 144.275 30.5102 144.351 30.3044C144.441 30.1051 144.492 29.9737 144.504 29.9102C144.536 29.839 144.558 29.7892 144.571 29.7607C144.687 29.5044 144.8 29.3674 144.911 29.3496C145.036 29.3383 145.177 29.3686 145.333 29.4404C145.518 29.5252 145.696 29.6418 145.869 29.7901C146.043 29.9385 146.078 30.1265 145.975 30.3543C145.6 31.2994 145.175 32.239 144.702 33.1734C144.249 34.1 143.775 35.0169 143.28 35.9239C142.791 36.8167 142.323 37.7018 141.875 38.5792C141.428 39.4566 141.036 40.3251 140.699 41.1847C140.658 41.2002 140.578 41.2064 140.459 41.2034C140.347 41.1862 140.227 41.1657 140.101 41.142C139.974 41.1182 139.851 41.0874 139.731 41.0494C139.625 41.018 139.551 40.9925 139.508 40.9729C139.379 40.8791 139.246 40.5858 139.108 40.0928C138.977 39.5855 138.853 38.9694 138.734 38.2445C138.616 37.5195 138.512 36.7239 138.423 35.8578C138.334 34.9916 138.249 34.1533 138.169 33.343C138.104 32.5391 138.055 31.8118 138.023 31.161C137.991 30.5102 137.983 30.0338 138 29.7318ZM143.582 39.3123C143.779 38.6117 144.015 37.9552 144.292 37.343C144.574 36.7166 144.896 36.0993 145.256 35.4912C145.631 34.8897 146.043 34.2799 146.494 33.6617C146.965 33.0359 147.48 32.37 148.039 31.664C148.11 31.5074 148.216 31.3846 148.36 31.2956C148.509 31.1924 148.674 31.1307 148.855 31.1106C149.042 31.0762 149.226 31.0664 149.408 31.0812C149.59 31.0961 149.752 31.1361 149.894 31.2014C150.206 31.345 150.445 31.5752 150.611 31.892C150.777 32.2088 150.894 32.5553 150.965 32.9314C151.049 33.3141 151.088 33.7017 151.083 34.0945C151.097 34.4795 151.103 34.8088 151.1 35.0823C150.988 35.6328 150.809 36.2382 150.562 36.8985C150.336 37.551 150.054 38.195 149.716 38.8303C149.377 39.4657 148.986 40.0678 148.54 40.6367C148.101 41.1914 147.621 41.6669 147.099 42.0631C146.577 42.4594 146.008 42.7311 145.393 42.8781C144.792 43.0318 144.167 43.011 143.518 42.8157C143.191 42.6656 142.991 42.4446 142.917 42.1527C142.85 41.8466 142.844 41.5174 142.9 41.165C142.977 40.8049 143.082 40.4578 143.216 40.1238C143.364 39.7964 143.486 39.5258 143.582 39.3123ZM144.698 39.7475C144.633 39.8899 144.572 40.0251 144.514 40.1533C144.471 40.2879 144.427 40.4226 144.383 40.5573C144.36 40.6842 144.331 40.8254 144.295 40.9809C144.28 41.1286 144.262 41.3009 144.242 41.4979L144.369 41.5566C144.71 41.7133 145.053 41.7331 145.397 41.6163C145.741 41.4994 146.079 41.3022 146.41 41.0246C146.748 40.7327 147.073 40.3922 147.386 40.0031C147.705 39.5997 147.99 39.1975 148.239 38.7964C148.51 38.3877 148.735 38.0015 148.917 37.6379C149.119 37.2665 149.271 36.9669 149.374 36.7391L149.567 36.312C149.65 36.1269 149.737 35.9172 149.825 35.6828C149.92 35.4343 150.001 35.1792 150.068 34.9176C150.155 34.6482 150.208 34.3976 150.227 34.1656C150.253 33.9194 150.238 33.7061 150.182 33.5258C150.126 33.3454 150.006 33.2128 149.821 33.128C149.554 32.8847 149.274 32.7821 148.983 32.82C148.706 32.8645 148.419 33.025 148.123 33.3014C147.847 33.5701 147.564 33.9302 147.275 34.3817C146.985 34.8331 146.702 35.3475 146.424 35.9247C146.146 36.5019 145.859 37.118 145.563 37.7729C145.282 38.4344 144.993 39.0926 144.698 39.7475ZM150.534 40.1088C150.808 39.6159 151.101 39.0802 151.414 38.5018C151.733 37.9091 152.07 37.3334 152.425 36.7746C152.794 36.2223 153.172 35.7082 153.558 35.2325C153.959 34.7632 154.373 34.3776 154.801 34.0757C155.249 33.7661 155.713 33.5751 156.191 33.5027C156.676 33.4161 157.178 33.5007 157.697 33.7564C158.052 33.9196 158.255 34.1931 158.304 34.5769C158.368 34.9673 158.339 35.3923 158.217 35.8521C158.109 36.3184 157.953 36.7794 157.747 37.235C157.562 37.6829 157.405 38.0492 157.277 38.3339C156.993 38.2034 156.813 37.9747 156.738 37.6478C156.669 37.3067 156.658 36.9495 156.707 36.5764C156.755 36.2032 156.829 35.8502 156.928 35.5174L157.144 34.8687C157.129 34.8622 157.101 34.8491 157.058 34.8296C157.036 34.8023 157.018 34.7854 157.004 34.7788C156.763 34.6679 156.474 34.6987 156.139 34.8713C155.818 35.0505 155.469 35.3112 155.092 35.6535C154.735 35.9881 154.374 36.3894 154.008 36.8574C153.649 37.3112 153.314 37.7677 153.004 38.2269C152.694 38.686 152.414 39.1161 152.164 39.5172C151.935 39.9105 151.769 40.221 151.666 40.4488C151.471 40.806 151.287 41.2117 151.116 41.6662C150.946 42.1206 150.844 42.5726 150.813 43.0223C150.781 43.472 150.829 43.898 150.956 44.3002C151.089 44.6882 151.347 45.0299 151.728 45.3254C152.253 45.5669 152.711 45.6915 153.102 45.6992C153.493 45.707 153.843 45.6355 154.151 45.4848C154.473 45.3407 154.758 45.1452 155.007 44.8984C155.256 44.6517 155.5 44.3945 155.741 44.127C156.003 43.8517 156.261 43.5836 156.516 43.3226C156.771 43.0615 157.066 42.8447 157.401 42.6721C157.591 42.7077 157.708 42.7703 157.754 42.8599C157.82 42.9418 157.847 43.0319 157.837 43.1304C157.827 43.2289 157.796 43.3351 157.745 43.449L157.639 43.6839C157.369 44.2819 157.009 44.8128 156.559 45.2767C156.11 45.7406 155.594 46.1052 155.011 46.3703C154.435 46.6212 153.816 46.7579 153.154 46.7804C152.513 46.7952 151.852 46.646 151.17 46.3327C150.602 46.0716 150.207 45.675 149.984 45.1429C149.782 44.603 149.69 44.0278 149.708 43.4174C149.741 42.8134 149.84 42.2142 150.006 41.6198C150.178 41.0111 150.354 40.5075 150.534 40.1088ZM158.354 46.1014C158.55 45.4008 158.786 44.7444 159.063 44.1322C159.346 43.5057 159.667 42.8885 160.028 42.2804C160.402 41.6789 160.815 41.069 161.265 40.4509C161.736 39.825 162.251 39.1591 162.81 38.4532C162.881 38.2966 162.988 38.1738 163.131 38.0848C163.28 37.9816 163.445 37.9199 163.626 37.8997C163.813 37.8653 163.998 37.8556 164.179 37.8704C164.361 37.8852 164.523 37.9253 164.665 37.9906C164.978 38.1342 165.217 38.3643 165.382 38.6812C165.548 38.998 165.666 39.3444 165.736 39.7206C165.82 40.1032 165.86 40.4909 165.854 40.8836C165.869 41.2687 165.874 41.5979 165.871 41.8714C165.759 42.4219 165.58 43.0273 165.334 43.6876C165.108 44.3402 164.826 44.9841 164.487 45.6195C164.149 46.2549 163.757 46.857 163.311 47.4259C162.872 47.9806 162.392 48.456 161.87 48.8523C161.348 49.2485 160.78 49.5202 160.165 49.6673C159.564 49.8209 158.939 49.8001 158.289 49.6049C157.963 49.4548 157.763 49.2338 157.689 48.9419C157.621 48.6358 157.615 48.3065 157.672 47.9541C157.748 47.594 157.854 47.247 157.987 46.913C158.135 46.5855 158.257 46.315 158.354 46.1014ZM159.469 46.5367C159.405 46.679 159.344 46.8143 159.286 46.9424C159.242 47.0771 159.198 47.2118 159.155 47.3464C159.132 47.4734 159.102 47.6146 159.066 47.77C159.051 47.9177 159.033 48.0901 159.013 48.287L159.141 48.3458C159.482 48.5024 159.824 48.5223 160.168 48.4055C160.513 48.2886 160.85 48.0914 161.182 47.8137C161.519 47.5219 161.844 47.1814 162.157 46.7922C162.477 46.3888 162.761 45.9866 163.011 45.5856C163.281 45.1769 163.507 44.7907 163.688 44.427C163.89 44.0556 164.043 43.7561 164.145 43.5283L164.338 43.1011C164.422 42.916 164.508 42.7063 164.597 42.472C164.692 42.2234 164.773 41.9683 164.839 41.7067C164.927 41.4374 164.98 41.1867 164.999 40.9548C165.024 40.7086 165.009 40.4953 164.953 40.315C164.898 40.1346 164.777 40.002 164.593 39.9172C164.325 39.6739 164.046 39.5713 163.754 39.6092C163.477 39.6537 163.19 39.8141 162.894 40.0906C162.618 40.3593 162.336 40.7194 162.046 41.1708C161.757 41.6223 161.473 42.1366 161.195 42.7138C160.917 43.2911 160.631 43.9071 160.335 44.5621C160.053 45.2235 159.765 45.8817 159.469 46.5367ZM169.517 50.0458C169.227 50.308 168.872 50.6004 168.452 50.9231C168.046 51.2523 167.607 51.5406 167.135 51.788C166.678 52.0419 166.196 52.216 165.691 52.3103C165.185 52.4046 164.698 52.344 164.229 52.1286C164.016 52.0307 163.856 51.9311 163.747 51.8296C163.659 51.7205 163.588 51.5932 163.534 51.4478C163.493 51.309 163.463 51.1488 163.442 50.9673C163.435 50.7923 163.414 50.5933 163.377 50.3702C163.65 49.653 163.959 48.8924 164.304 48.0886C164.671 47.277 165.077 46.4922 165.522 45.734C165.974 44.9617 166.459 44.2652 166.98 43.6447C167.514 43.0307 168.078 42.5594 168.673 42.2308C169.281 41.9087 169.918 41.7714 170.582 41.8189C171.246 41.8664 171.942 42.1687 172.667 42.7258C172.89 42.3467 173.138 41.8161 173.412 41.1338C173.686 40.4516 173.961 39.7273 174.239 38.9608C174.516 38.1943 174.781 37.4563 175.033 36.7468C175.291 36.0231 175.513 35.4372 175.698 34.9894C175.755 34.8612 175.854 34.7948 175.993 34.79C176.153 34.7776 176.308 34.7969 176.456 34.8479C176.604 34.8989 176.739 34.9609 176.861 35.0339C176.996 35.1134 177.079 35.1772 177.109 35.2253C176.29 36.9634 175.505 38.6829 174.754 40.3838C174.009 42.0703 173.265 43.7569 172.521 45.4435C171.797 47.1223 171.076 48.7941 170.359 50.4587C169.642 52.1233 168.91 53.7814 168.164 55.433C168.094 55.5896 168.006 55.7468 167.9 55.9046C167.802 56.0832 167.64 56.1203 167.413 56.0158C167.327 55.9767 167.255 55.909 167.195 55.8129C167.13 55.7311 167.105 55.6338 167.121 55.521L169.517 50.0458ZM171.397 43.4314C170.97 43.2006 170.478 43.1893 169.921 43.3975C169.384 43.598 168.839 43.9319 168.285 44.3994C167.745 44.8734 167.226 45.4343 166.728 46.0821C166.236 46.7156 165.818 47.3572 165.473 48.0068C165.149 48.6487 164.928 49.252 164.81 49.8168C164.707 50.3881 164.769 50.8381 164.998 51.1667C165.31 51.3103 165.656 51.3231 166.035 51.2051C166.421 51.0728 166.814 50.8667 167.215 50.5867C167.615 50.3067 168.007 49.9709 168.39 49.5794C168.779 49.1736 169.13 48.7762 169.442 48.387C169.77 48.0044 170.042 47.6482 170.259 47.3183C170.498 46.9808 170.658 46.7195 170.742 46.5344C170.806 46.392 170.916 46.1674 171.072 45.8607C171.227 45.554 171.362 45.2375 171.475 44.9113C171.588 44.585 171.649 44.278 171.659 43.9902C171.683 43.709 171.596 43.5228 171.397 43.4314ZM172.907 50.7531C172.83 50.7347 172.714 50.7071 172.559 50.6703C172.404 50.6335 172.252 50.5721 172.102 50.4861C171.952 50.4001 171.836 50.2953 171.755 50.1719C171.659 50.042 171.65 49.8916 171.727 49.7208C171.772 49.6211 171.826 49.5597 171.887 49.5366C171.949 49.5134 172.049 49.482 172.187 49.4423C172.615 49.3296 173.026 49.1228 173.419 48.8221C173.833 48.5136 174.235 48.174 174.625 47.8032C175.022 47.4183 175.422 47.0436 175.827 46.6794C176.252 46.3075 176.683 45.9984 177.12 45.7522C177.557 45.5061 178.026 45.3604 178.526 45.3154C179.027 45.2703 179.565 45.3887 180.14 45.6705C180.382 45.7815 180.626 45.9625 180.873 46.2134C181.12 46.4644 181.326 46.7483 181.491 47.0651C181.663 47.3676 181.773 47.6933 181.822 48.0422C181.87 48.391 181.82 48.7292 181.672 49.0566C181.692 49.2032 181.547 49.3343 181.238 49.4499C180.942 49.5721 180.559 49.6798 180.089 49.7729C179.624 49.8518 179.104 49.922 178.527 49.9837C177.971 50.0376 177.436 50.0839 176.921 50.1224C176.407 50.1609 175.955 50.1938 175.565 50.2211C175.176 50.2484 174.912 50.2819 174.774 50.3216C174.639 50.4314 174.508 50.569 174.382 50.7345C174.255 50.9 174.14 51.0617 174.034 51.2195C173.949 51.3696 173.867 51.5125 173.789 51.6484C173.731 51.7765 173.686 51.8762 173.654 51.9474C173.532 52.2179 173.383 52.5103 173.206 52.8248C173.044 53.1457 172.917 53.4655 172.825 53.784C172.753 54.0949 172.764 54.3924 172.859 54.6766C172.96 54.9465 173.231 55.1826 173.671 55.385C174.139 55.6004 174.631 55.6888 175.146 55.6502C175.667 55.5975 176.182 55.4818 176.691 55.3033C177.201 55.1247 177.687 54.9014 178.151 54.6333C178.629 54.3717 179.059 54.1223 179.441 53.885C179.843 53.64 180.188 53.446 180.475 53.3031C180.763 53.1601 180.97 53.118 181.098 53.1767C181.24 53.242 181.376 53.339 181.507 53.4678C181.658 53.5888 181.692 53.7419 181.608 53.9269C181.492 54.1832 181.248 54.4404 180.874 54.6984C180.514 54.963 180.074 55.2163 179.553 55.4583C179.047 55.7068 178.483 55.9293 177.863 56.1256C177.264 56.3142 176.673 56.464 176.091 56.5749C175.516 56.6716 174.971 56.7217 174.455 56.7252C173.945 56.7145 173.527 56.6341 173.2 56.4839C172.561 56.1902 172.149 55.8117 171.964 55.3484C171.779 54.885 171.721 54.3858 171.791 53.8507C171.876 53.3221 172.03 52.7912 172.253 52.2578C172.498 51.7168 172.716 51.2152 172.907 50.7531ZM179.43 46.7882C179.189 46.6772 178.878 46.6808 178.499 46.7988C178.127 46.9026 177.742 47.0699 177.347 47.3006C176.972 47.5237 176.626 47.7773 176.309 48.0614C176.013 48.3379 175.813 48.59 175.71 48.8178C175.923 48.9157 176.264 48.9777 176.732 49.0038C177.221 49.0222 177.719 49.0018 178.226 48.9425C178.733 48.8832 179.196 48.7868 179.617 48.6534C180.037 48.5199 180.302 48.3322 180.411 48.0901C180.469 47.962 180.468 47.8324 180.407 47.7013C180.346 47.5702 180.257 47.4435 180.141 47.3213C180.039 47.2056 179.923 47.1009 179.794 47.0071C179.665 46.9134 179.544 46.8404 179.43 46.7882ZM185.023 49.2817C185.615 47.9718 186.228 46.6892 186.864 45.4339C187.506 44.1644 188.178 42.8658 188.88 41.5381C188.974 41.4438 189.056 41.3955 189.126 41.3931C189.202 41.3765 189.289 41.391 189.389 41.4367C189.531 41.502 189.611 41.5904 189.629 41.7019C189.654 41.7992 189.651 41.901 189.62 42.0072C189.603 42.1199 189.559 42.237 189.487 42.3587C189.435 42.4726 189.39 42.5722 189.352 42.6576L186.401 49.1927C186.285 49.449 186.185 49.7293 186.099 50.0337L185.841 50.9467C185.769 51.2575 185.682 51.5444 185.581 51.8072C185.5 52.0623 185.392 52.2622 185.258 52.4069C185.159 52.5505 185.013 52.6466 184.82 52.6952C184.64 52.7504 184.473 52.7421 184.317 52.6703C184.061 52.5528 183.941 52.3431 183.958 52.0411C183.974 51.7391 184.045 51.4108 184.171 51.056C184.311 50.7078 184.465 50.3661 184.634 50.0309C184.816 49.7023 184.946 49.4525 185.023 49.2817ZM181.881 59.8292L182.036 59.4875C182.068 59.4163 182.107 59.3484 182.153 59.2837C182.206 59.2048 182.267 59.1467 182.335 59.1093C182.403 59.072 182.48 59.0729 182.565 59.112C182.849 59.2425 182.98 59.3888 182.959 59.5507C182.958 59.705 182.915 59.8747 182.832 60.0598C182.742 60.2591 182.64 60.4098 182.525 60.5118C182.424 60.6204 182.232 60.6094 181.948 60.4788C181.863 60.4397 181.812 60.3818 181.795 60.3053C181.778 60.2288 181.779 60.1516 181.797 60.0739C181.821 59.982 181.849 59.9004 181.881 59.8292Z" fill="#00BC87"/>
</g>
<defs>
<linearGradient id="paint0_linear" x1="49.2092" y1="205.261" x2="131.651" y2="205.261" gradientUnits="userSpaceOnUse">
<stop stop-color="white" stop-opacity="0"/>
<stop offset="0.15" stop-color="white" stop-opacity="0.13"/>
<stop offset="0.49" stop-color="white" stop-opacity="0.46"/>
<stop offset="0.98" stop-color="white" stop-opacity="0.98"/>
<stop offset="1" stop-color="white"/>
</linearGradient>
<clipPath id="clip0">
<rect width="208" height="173" fill="white"/>
</clipPath>
</defs>
</svg>
