<svg xmlns="http://www.w3.org/2000/svg">
  <symbol id="google" viewBox="0 0 596 194.5">
    <path d="M73.4 0h5.3c18.4.4 36.5 7.8 49.5 20.9-4.8 4.9-9.7 9.6-14.4 14.5-7.3-6.6-16.1-11.7-25.7-13.5-14.2-3-29.5-.3-41.4 7.8C33.7 38.2 24.9 52.6 23 68c-2.1 15.2 2.2 31.2 12.1 43 9.5 11.5 24 18.7 39 19.2 14 .8 28.6-3.5 38.8-13.3 8-6.9 11.7-17.4 12.9-27.6-16.6 0-33.2.1-49.8 0V68.7h69.9c3.6 22.1-1.6 47-18.4 62.8-11.2 11.2-26.7 17.8-42.5 19.1-15.3 1.5-31.1-1.4-44.7-8.8C24 133.1 11 118.4 4.6 101.1c-6-15.9-6.1-33.9-.5-49.9C9.2 36.6 19 23.7 31.6 14.7 43.7 5.8 58.4.9 73.4 0z" />
    <path d="M474.4 5.2h21.4V148c-7.1 0-14.3.1-21.4-.1.1-47.5 0-95.1 0-142.7z" />
    <path d="M193.5 54.7c13.2-2.5 27.5.3 38.4 8.2 9.9 7 16.8 18 18.9 30 2.7 13.9-.7 29.1-9.7 40.1-9.7 12.3-25.6 18.9-41.1 17.9-14.2-.8-28-7.9-36.4-19.5-9.5-12.8-11.8-30.4-6.6-45.4 5.2-16.1 19.9-28.4 36.5-31.3m3 19c-5.4 1.4-10.4 4.5-14 8.9-9.7 11.6-9.1 30.5 1.6 41.3 6.1 6.2 15.3 9.1 23.8 7.4 7.9-1.4 14.8-6.7 18.6-13.7 6.6-11.9 4.7-28.3-5.4-37.6-6.5-6-16-8.5-24.6-6.3z" />
    <path d="M299.5 54.7c15.1-2.9 31.6 1.3 42.9 11.9 18.4 16.5 20.4 47.4 4.7 66.4-9.5 12-24.9 18.6-40.1 17.9-14.5-.4-28.8-7.6-37.4-19.5-9.7-13.1-11.8-31.1-6.3-46.4 5.5-15.6 19.9-27.5 36.2-30.3m3 19c-5.4 1.4-10.4 4.5-14 8.8-9.6 11.4-9.2 30 1.1 40.9 6.1 6.5 15.6 9.7 24.4 7.9 7.8-1.5 14.8-6.7 18.6-13.7 6.5-12 4.6-28.4-5.6-37.7-6.5-6-16-8.4-24.5-6.2z" />
    <path d="M389.4 60.5c11.5-7.2 26.8-9.2 39.2-3 3.9 1.7 7.1 4.6 10.2 7.5.1-2.7 0-5.5.1-8.3 6.7.1 13.4 0 20.2.1V145c-.1 13.3-3.5 27.4-13.1 37.1-10.5 10.7-26.6 14-41.1 11.8-15.5-2.3-29-13.6-35-27.9 6-2.9 12.3-5.2 18.5-7.9 3.5 8.2 10.6 15.2 19.5 16.8 8.9 1.6 19.2-.6 25-8 6.2-7.6 6.2-18 5.9-27.3-4.6 4.5-9.9 8.5-16.3 10-13.9 3.9-29.2-.9-39.9-10.3-10.8-9.4-17.2-23.9-16.6-38.3.3-16.3 9.5-32 23.4-40.5m20.7 12.8c-6.1 1-11.8 4.4-15.7 9.1-9.4 11.2-9.4 29.1.1 40.1 5.4 6.5 14.1 10.1 22.5 9.2 7.9-.8 15.2-5.8 19.1-12.7 6.6-11.7 5.5-27.6-3.4-37.8-5.5-6.3-14.3-9.4-22.6-7.9z" />
    <path d="M521.5 65.6c12-11.2 30.5-15 45.9-9.1C582 62 591.3 75.9 596 90.2c-21.7 9-43.3 17.9-65 26.9 3 5.7 7.6 10.9 13.8 13 8.7 3.1 19.1 2 26.4-3.8 2.9-2.2 5.2-5.1 7.4-7.9 5.5 3.7 11 7.3 16.5 11-7.8 11.7-20.9 19.9-35 21.2-15.6 1.9-32.2-4.1-42.3-16.3-16.6-19.2-15-51.4 3.7-68.7m10.7 18.5c-3.4 4.9-4.8 10.9-4.7 16.8 14.5-6 29-12 43.5-18.1-2.4-5.6-8.2-9-14.1-9.9-9.5-1.7-19.4 3.4-24.7 11.2z" />
  </symbol>
  <symbol id="elsevier" viewBox="0 0 549.92 85.01">
    <path id="path4851" class="cls-1" d="M200.75,18.55c-12.3,0-22.4,8.44-22.4,22.11,0,10.66,8.52,16.24,21.61,25.66,10.15,7.29,16.74,12.87,16.74,19.44,0,8.1-6.66,13.48-14.58,13.48C190,99.24,182.83,88,178.35,77.67h-2.16l4.33,25.1h2.16a3,3,0,0,1,2.94-2.71c2.12,0,10.62,3.5,18.66,3.5,13.39,0,23.73-10,23.73-22.94,0-11.55-9.63-18.83-19.68-24.83-12.29-7.41-20-12.33-20-20a12.34,12.34,0,0,1,12.42-12.69C212,23.14,219,33.2,222.08,43.65h2.16L221.8,19.33h-2.43c.32,1.88,0,3-1.89,3C212.68,22.32,209.57,18.55,200.75,18.55ZM29.07,20.43v2.44c8.93,0,12.14,1.94,12.14,11.59V87.65c0,9.64-3.21,11.59-12.14,11.59v2.43H97.62l6.21-20-2.16-.83c-2.91,9.29-9.13,15.68-19.17,15.68H58.77c-5.14,0-5.42-2.33-5.42-9.75V61.17H76.84c7.6,0,10.12,3.61,10.8,11.35h2.17V45.26H87.64c-.78,7.89-3.08,11.08-10.8,11.08H53.35V33.67c0-6.86-.16-8.13,4.87-8.13H79.55c9.27,0,13.92,2.82,15.13,12.69h2.39L96,20.43Zm74,0v2.44c8.27.45,11.32,2,11.32,11.31V87.92c0,9.31-3,10.86-11.32,11.32v2.43h64.24L174,80.89l-2.71-.55c-4.71,11.17-10.16,16.23-22.11,16.23h-16c-6.59,0-6.76-3.67-6.76-10.26V34.46c0-9.65,3-11.59,11.9-11.59V20.43Zm125.52,0v2.44c8.92,0,11.87,1.94,11.87,11.59V87.65c0,9.64-3,11.59-11.87,11.59v2.43h68.56l6-20-2.16-.83c-2.91,9.29-9.13,15.68-19.18,15.68H258.26c-5.14,0-5.66-2.33-5.66-9.75V61.17h23.46c7.59,0,10.13,3.61,10.8,11.35h2.44V45.26h-2.44c-.79,7.89-3.09,11.08-10.8,11.08H252.6V33.67c0-6.86.08-8.13,5.11-8.13h21.06c9.26,0,14.19,2.82,15.4,12.69h2.16l-1.1-17.8Zm68.32,0v2.44A10.55,10.55,0,0,1,306,28.25c4.46,7.84,7.78,16.09,11.36,24.32L339,102.5h1.61l25.93-59.4c2-4.71,6.29-17,10.53-19.17a11.64,11.64,0,0,1,4.05-1.06V20.43H357.34v2.44c5.82.32,8.64,1.81,8.64,4.32s-.66,5.41-3,10.8L343.55,83.05,327.36,44.71c-3.12-7.4-6.75-15.7-6.75-17.25,0-4.55,6.34-4.59,9.47-4.59V20.43Zm85,0v2.44c8.94,0,12.14,1.94,12.14,11.59V87.65c0,9.64-3.2,11.59-12.14,11.59v2.43h36.19V99.24c-8.92,0-12.14-1.95-12.14-11.59V34.46c0-9.65,3.22-11.59,12.14-11.59V20.43Zm41.06,0v2.44c8.94,0,12.14,1.94,12.14,11.59V87.65c0,9.64-3.2,11.59-12.14,11.59v2.43H491.5l6.21-20-2.16-.83c-2.92,9.29-9.11,15.68-19.18,15.68H452.65c-5.14,0-5.43-2.33-5.43-9.75V61.17h23.5c7.59,0,10.11,3.61,10.8,11.35H484V45.26h-2.44c-.81,7.89-3.09,11.08-10.8,11.08h-23.5V33.67c0-6.86-.15-8.13,4.88-8.13h21.33c9.25,0,14.15,2.82,15.4,12.69H491l-1.06-17.8Zm74.48,0v2.44c8.91,0,12.18,1.94,12.18,11.59V87.65c0,9.64-3.27,11.59-12.18,11.59v2.43h36.18V99.24c-8.93,0-11.86-1.95-11.86-11.59V65.49h10l29.15,36.18H579V99.24c-5-1.39-6.74-2.72-9.74-6.48L544.69,62.55c12.09-2.62,20.51-8.78,20.51-22.16,0-19-17.05-20-31-20Zm33,4.32c11.07,0,21.06,4,21.06,17.29,0,14.35-11.45,18.34-23.49,18.34h-6.21V30.68C521.75,25.17,523,24.75,530.39,24.75Z" transform="translate(-29.07 -18.55)" />
  </symbol>
  <symbol id="congstar" viewBox="0 0 341.8 92.7">
    <path id="path6811" d="M263,20.4c-1.8,0-3.2,1.4-3.2,3.2v25.2c0,5.8,3.4,9.5,8.8,9.5h6.6c1.7,0,3.1-1.4,3.1-3.1
	c0-1.7-1.4-3.1-3.1-3.1h-6c-2.3,0-3-0.6-3-2.7V35.8h9c1.7,0,3.1-1.3,3.1-3c0-1.7-1.4-3.1-3.1-3.1h-9v-6.2
	C266.2,21.8,264.7,20.4,263,20.4z M148.2,29.1c-8.3,0-14.8,6.4-14.8,14.8c0,8.3,6.5,14.9,14.8,14.9c8.3,0,14.7-6.6,14.7-14.9
	C163,35.6,156.5,29.1,148.2,29.1z M294.4,29.7c-8.7,0-14.7,6-14.7,14.6c0,8.1,6.2,13.9,14.7,13.9c2.3,0,4.5-0.7,6.2-1.7
	c0.5,1.1,1.4,2.1,2.7,2.1c1.7,0,3.2-1.4,3.2-3.2V29.7H294.4z M124.1,29.7c-7,0-14.3,5.3-14.3,14.2c0,8.9,7.3,14.3,14.3,14.3h3.9
	c1.7,0,3.1-1.4,3.1-3.1c0-1.7-1.4-3.1-3.1-3.1h-2.9c-4.3,0-8.7-2.8-8.7-8.2c0-5.3,4.4-8.1,8.7-8.1h2.9c1.7,0,3.1-1.3,3.1-3
	c0-1.7-1.4-3.1-3.1-3.1H124.1z M168.1,29.7v25.4c0,1.8,1.5,3.2,3.2,3.2c1.8,0,3.2-1.4,3.2-3.2c0,0,0-18,0-19.3c1.1,0,5.9,0,5.9,0
	c3.3,0,5.9,2.9,5.9,6.5v12.8c0,1.8,1.4,3.2,3.1,3.2c1.8,0,3.2-1.4,3.2-3.2V42.3c0-7.3-5.2-12.6-12.3-12.6H168.1z M212.8,29.7
	c-8.7,0-14.8,6-14.8,14.6c0,8.1,6.2,13.9,14.8,13.9c2.1,0,3.9-0.5,5.7-1.1c0,7.1-6.1,7.9-8.7,7.9c-2.5,0-5-0.7-7.4-1.4l-0.4-0.1
	c-0.8-0.2-1.6-0.1-2.3,0.3c-0.7,0.4-1.2,1.1-1.4,1.9c-0.2,0.8-0.1,1.6,0.3,2.3c0.4,0.7,1,1.2,1.8,1.4l0.4,0.1
	c3.3,1.1,6.2,1.6,9.1,1.6c9.2,0,14.9-6,14.9-15.7V29.7H212.8z M239.3,29.7c-4.9,0-8.8,3.7-8.8,8.5c0,4.8,3.9,8.8,8.8,8.8
	c-0.2,0,1.4,0,6.5,0c1.5,0,2.8,1.2,2.8,2.7c0,1.6-1.5,2.4-2.8,2.4h-10.7c-1.7,0-3.1,1.4-3.1,3.1c0,1.7,1.4,3.1,3.1,3.1h10.7
	c5,0,8.9-3.8,8.9-8.5c0-4.9-4-8.9-8.9-8.9c0.2,0-1.4,0-6.5,0c-1.5,0-2.6-1.2-2.6-2.6c0-1.4,1.1-2.4,2.6-2.4h10.8
	c1.7,0,3.1-1.3,3.1-3c0-1.7-1.4-3.1-3.1-3.1H239.3z M313.7,29.7v25.4c0,1.8,1.4,3.2,3.1,3.2c1.8,0,3.2-1.4,3.2-3.2c0,0,0-18,0-19.3
	c0.8,0,2.1,0,2.1,0c3.5,0,5.1,1.6,5.1,5c0,1.8,1.4,3.1,3.2,3.1c1.7,0,3.2-1.4,3.2-3.1c0-7-4.2-11.1-11.5-11.1H313.7z M148.2,35.2
	c4.8,0,8.1,3.6,8.1,8.7c0,5.1-3.3,8.8-8.1,8.8c-4.8,0-8.2-3.7-8.2-8.8C140,38.8,143.4,35.2,148.2,35.2z M212.5,35.8c0,0,4.9,0,6,0
	v14.3c-1.5,1.2-3.4,2-5.8,2c-5.1,0-8.4-3-8.4-7.5C204.4,39.1,207.4,35.8,212.5,35.8z M300.2,35.8v13.8c-1.3,1.4-3.3,2.5-5.7,2.5
	c-5.1,0-8.4-3-8.4-7.5c0-5.5,3-8.8,8.1-8.8C294.2,35.8,299,35.8,300.2,35.8z"/>
<path id="path6835" d="M60.1,25.7c0.8,0.8,3,2.2,5.1,1.5l20.1-7.4C71.6,3,46.9-1.6,27.6,9.8C6.8,22,0.3,48.2,13,68.2
	c12.7,20,39.8,26.3,60.6,14c7-4.1,12.4-9.9,16-16.4L72,61.1c-1.9-0.5-3.8,0.4-4.5,1.8l-9.8,19.6c-0.5,1-1.7,1.5-2.7,1
	c-0.6-0.3-1-0.8-1.2-1.4l-4.6-24.1c-0.5-2.6-2.9-3.9-4.2-4.2l-23.7-6.4c-0.6-0.2-1.2-0.7-1.4-1.4c-0.3-1.1,0.2-2.3,1.3-2.6L42,35.7
	c1.5-0.6,2.6-2.4,2.3-4.2l-3.9-21.3c-0.2-1,0.4-2,1.4-2.3c0.8-0.3,1.6,0,2.2,0.6L60.1,25.7z"/>
  </symbol>
  <symbol id="frontier" viewBox="0 0 688.53 152.67">
    <path class="cls-1" d="M139.62,25.22h33.93c15,0,24.93,3.34,31,9.39,4.75,4.76,6.94,11.17,6.94,18.37,0,15-8.62,26.86-27,31.87l13.89,30.33h-27.5l-12-27.24H147.85l-7.32,27.24H115.47ZM167.25,68.4c11.18,0,18.51-4.75,18.51-12.46a8.4,8.4,0,0,0-2.32-6c-2.05-2.06-5.78-3.08-11-3.08H158.9L153,68.4Z" transform="translate(-22.1 -23.55)" />
    <path class="cls-1" d="M215.86,76.5a53.4,53.4,0,0,1,53.58-52.95C295,23.55,312.36,41,312.36,63.9a53.41,53.41,0,0,1-53.59,53c-25.57,0-42.91-17.47-42.91-40.35m71.06-10.67c0-11.43-6.94-19.92-19.66-19.92-15.68,0-26,15.29-26,28.67,0,11.42,6.93,19.91,19.66,19.91,15.8,0,26-15.29,26-28.66" transform="translate(-22.1 -23.55)" />
    <polygon class="cls-1" points="312.37 1.67 335.62 1.67 358.89 51.66 372.37 1.67 397.17 1.67 373.01 91.63 351.17 91.63 326.88 39.84 313.01 91.63 288.2 91.63 312.37 1.67" />
    <polygon class="cls-1" points="429.17 23.51 402.19 23.51 408.1 1.67 486.87 1.67 481.09 23.51 454.1 23.51 435.85 91.63 410.79 91.63 429.17 23.51" />
    <polygon class="cls-1" points="497.8 1.67 522.73 1.67 498.57 91.63 473.65 91.63 497.8 1.67" />
    <polygon class="cls-1" points="533.67 1.67 605.76 1.67 599.97 22.87 552.68 22.87 548.95 36.49 591.88 36.49 586.62 56.16 543.68 56.16 539.83 70.42 587.89 70.42 582.24 91.63 509.51 91.63 533.67 1.67" />
    <path class="cls-1" d="M638.8,25.22h33.93c15,0,24.93,3.34,31,9.39,4.76,4.76,6.94,11.17,6.94,18.37,0,15-8.6,26.86-27,31.87l13.89,30.33H670L658.08,87.94H647l-7.33,27.24H614.64ZM666.43,68.4c11.18,0,18.5-4.75,18.5-12.46a8.44,8.44,0,0,0-2.31-6c-2.06-2.06-5.78-3.08-11.06-3.08H658.08L652.16,68.4Z" transform="translate(-22.1 -23.55)" />
    <path class="cls-1" d="M128.27,25.22h-71C49,25.22,44.93,29,42.12,40.11l-3.47,13c-.14.39.3.66.64.42,0,0,4.05-2.78,11.12-2.78h60.15c7.47,0,13.09-6.64,14.63-12.38l3.4-12.7a.31.31,0,0,0-.32-.43" transform="translate(-22.1 -23.55)" />
    <g class="cls-2">
      <path class="cls-1" d="M116.44,57.44H48.62c-8.22,0-11.79,3.13-15.11,14.89L30,85.29a.38.38,0,0,0,.6.44A22.38,22.38,0,0,1,42,83h55.2c8.63,0,14.68-6.75,17.37-16.71l2.23-8.36a.31.31,0,0,0-.32-.44" transform="translate(-22.1 -23.55)" />
      <path class="cls-1" d="M71,89.67H40c-8,0-12.09,3.61-14.9,14l-3,11.07a.33.33,0,0,0,.33.43H52c7.47,0,13.8-4.76,16.55-15l2.7-10.08a.33.33,0,0,0-.33-.42" transform="translate(-22.1 -23.55)" />
    </g>
    <path class="cls-3" d="M440.87,139.46h9.59l15.28,36.14H455.08l-2.62-6.41H438.62l-2.57,6.41H425.59Zm8.72,22-4-10.2-4,10.2Z" transform="translate(-22.1 -23.55)" />
    <rect class="cls-3" x="451.17" y="116.15" width="9.99" height="35.9" />
    <path class="cls-3" d="M493.66,139.72h17c5.49,0,9.27,1.43,11.68,3.89a11.11,11.11,0,0,1,3.19,8.36v.1a11.33,11.33,0,0,1-7.38,11l8.56,12.51H515.21L508,164.74h-4.36V175.6h-9.95Zm16.51,17.22c3.39,0,5.35-1.65,5.35-4.26v-.1c0-2.82-2.07-4.25-5.4-4.25h-6.51v8.61Z" transform="translate(-22.1 -23.55)" />
    <polygon class="cls-3" points="512.26 116.16 522.21 116.16 522.21 143.33 539.6 143.33 539.6 152.05 512.26 152.05 512.26 116.16" />
    <rect class="cls-3" x="547.89" y="116.15" width="10" height="35.9" />
    <polygon class="cls-3" points="568.29 116.16 577.57 116.16 592.34 135.13 592.34 116.16 602.19 116.16 602.19 152.05 593.47 152.05 578.13 132.36 578.13 152.05 568.29 152.05 568.29 116.16" />
    <polygon class="cls-3" points="612.37 116.16 641.24 116.16 641.24 124.61 622.21 124.61 622.21 130.05 639.45 130.05 639.45 137.89 622.21 137.89 622.21 143.59 641.5 143.59 641.5 152.05 612.37 152.05 612.37 116.16" />
    <path class="cls-3" d="M669.79,170.27l5.53-6.6A18.55,18.55,0,0,0,687,168c2.67,0,4.1-.93,4.1-2.46v-.11c0-1.49-1.17-2.31-6-3.43-7.64-1.75-13.54-3.9-13.54-11.29v-.09c0-6.67,5.28-11.5,13.9-11.5,6.1,0,10.87,1.65,14.77,4.77l-5,7a18,18,0,0,0-10-3.53c-2.41,0-3.6,1-3.6,2.3v.1c0,1.64,1.24,2.36,6.21,3.49,8.25,1.79,13.39,4.46,13.39,11.18v.1c0,7.33-5.8,11.7-14.52,11.7a25,25,0,0,1-16.81-6" transform="translate(-22.1 -23.55)" />
  </symbol>
  <symbol id="panasonic" viewBox="0 0 600.02 91.7">
    <path d="M43.59,62H27.17V41H37.84c2,0,3.74,0,5.76-.16a8.77,8.77,0,0,0,6.81-3.67,8.19,8.19,0,0,0,1.6-3.9,14.13,14.13,0,0,0,.08-3.56,9,9,0,0,0-9-8.17H27.17v68H0V0H44.4c1.77,0,3.26,0,5,.13A30.31,30.31,0,0,1,75.92,18a30.64,30.64,0,0,1,2.81,17,29.07,29.07,0,0,1-23,25.63A54.11,54.11,0,0,1,43.6,62" />
    <path id="a" d="M144.48,84.53c-.36-5.27-.56-9.73-.67-15-.14-7-.22-12.8-.27-19.75a40.77,40.77,0,0,0-1.38-10.54,16.67,16.67,0,0,0-8.3-10.77A27,27,0,0,0,126,25.5,66.73,66.73,0,0,0,99.33,25a32.1,32.1,0,0,0-7.22,2.1A19.22,19.22,0,0,0,80.73,39.53a15.37,15.37,0,0,0-.61,6.6,3.28,3.28,0,0,0,.34,1.17l21.53.53a9.56,9.56,0,0,1,.58-3.82,6.54,6.54,0,0,1,4.06-4.07,12.56,12.56,0,0,1,8.59-.15,5.87,5.87,0,0,1,3.9,4,3.85,3.85,0,0,1-.55,3.43,5.13,5.13,0,0,1-2.46,1.92,18.11,18.11,0,0,1-1.85.6,83.88,83.88,0,0,1-8.6,1.87c-2.42.4-4.46.77-6.86,1.26a77.5,77.5,0,0,0-9.13,2.38,19.14,19.14,0,0,0-7.4,4.32,15.57,15.57,0,0,0-5.12,9.71,19.67,19.67,0,0,0,.3,7.45,17.8,17.8,0,0,0,12.7,13.51,31.12,31.12,0,0,0,21.16-1.07A20.26,20.26,0,0,0,119.69,83l-1.52-11a9.25,9.25,0,0,1-4.26,3.63,16.1,16.1,0,0,1-5.1,1.34,11.42,11.42,0,0,1-4.39-.38,6.2,6.2,0,0,1-3-1.82,5.42,5.42,0,0,1-1.4-2.69,4.28,4.28,0,0,1,1.46-4.23,8.34,8.34,0,0,1,2.7-1.58q3.55-1.32,7.2-2.34a55.09,55.09,0,0,0,8.57-3.16,24.42,24.42,0,0,1-.06,6.67A10.65,10.65,0,0,1,118.17,72l1.52,11c.47,1.56.9,2.86,1.44,4.4a6.2,6.2,0,0,0,1.3,2.18h23.7a10.29,10.29,0,0,1-1.65-5" />
    <path id="b" d="M172.83,32.34a39.87,39.87,0,0,1,9.93-6.45,26,26,0,0,1,18.9-1.4,20.61,20.61,0,0,1,14.27,13.94,30.92,30.92,0,0,1,1.52,9.83V89.54h-25.4V52.42a11.38,11.38,0,0,0-.52-3.48,7,7,0,0,0-4.13-4.57,9.58,9.58,0,0,0-12.08,4,10.36,10.36,0,0,0-1.5,5.53V89.54h-24.6v-64h23.07l.54,6.76" />
    <path d="M288.08,84.53c-.36-5.27-.56-9.73-.67-15-.14-7-.22-12.8-.27-19.75a40.77,40.77,0,0,0-1.38-10.54,16.67,16.67,0,0,0-8.3-10.77,27,27,0,0,0-7.86-2.95A66.73,66.73,0,0,0,242.93,25a32.1,32.1,0,0,0-7.22,2.1,19.22,19.22,0,0,0-11.38,12.46,15.37,15.37,0,0,0-.61,6.6,3.28,3.28,0,0,0,.34,1.17l21.53.53a9.56,9.56,0,0,1,.58-3.82,6.54,6.54,0,0,1,4.06-4.07,12.56,12.56,0,0,1,8.59-.15,5.87,5.87,0,0,1,3.9,4,3.85,3.85,0,0,1-.55,3.43,5.13,5.13,0,0,1-2.46,1.92,18.11,18.11,0,0,1-1.85.6,83.88,83.88,0,0,1-8.6,1.87c-2.42.4-4.46.77-6.86,1.26a77.5,77.5,0,0,0-9.13,2.38,19.14,19.14,0,0,0-7.4,4.32,15.57,15.57,0,0,0-5.12,9.71,19.67,19.67,0,0,0,.3,7.45,17.8,17.8,0,0,0,12.7,13.51,31.12,31.12,0,0,0,21.16-1.07A20.26,20.26,0,0,0,263.29,83l-1.52-11a9.25,9.25,0,0,1-4.26,3.63,16.1,16.1,0,0,1-5.1,1.34,11.42,11.42,0,0,1-4.39-.38,6.2,6.2,0,0,1-3-1.82,5.42,5.42,0,0,1-1.4-2.69,4.28,4.28,0,0,1,1.46-4.23,8.34,8.34,0,0,1,2.7-1.58q3.56-1.32,7.2-2.34a55.09,55.09,0,0,0,8.57-3.16,24.42,24.42,0,0,1-.06,6.67A10.65,10.65,0,0,1,261.77,72l1.52,11c.47,1.56.9,2.86,1.44,4.4a6.2,6.2,0,0,0,1.3,2.18h23.7a10.29,10.29,0,0,1-1.65-5" />
    <path d="M323.58,66a33.34,33.34,0,0,1,5.12,1.28,4.1,4.1,0,0,1,2.8,3.13,4.67,4.67,0,0,1-1.29,4.4A7.33,7.33,0,0,1,326,77a12.23,12.23,0,0,1-6.4-.6,8.7,8.7,0,0,1-2.73-1.55,6.87,6.87,0,0,1-2.23-3.36,10.35,10.35,0,0,1-.48-3.41H290.7v1.36a16.77,16.77,0,0,0,1.11,6.14A19.64,19.64,0,0,0,297,83.35a24.94,24.94,0,0,0,10.65,6A56.8,56.8,0,0,0,333,91a34.9,34.9,0,0,0,11.37-3.7,22.87,22.87,0,0,0,4.4-3A19.48,19.48,0,0,0,355,63a15.59,15.59,0,0,0-4.82-7.29,27,27,0,0,0-10.6-5.77L337,49.21a113.32,113.32,0,0,0-14.48-3.08c-1.38-.2-2.54-.42-3.9-.74a8.64,8.64,0,0,1-1.73-.6A2.86,2.86,0,0,1,315.44,41h0l.11-.22A5.56,5.56,0,0,1,319,38.07a12.51,12.51,0,0,1,7.77.18,5.81,5.81,0,0,1,4,5.83h22.58a22.36,22.36,0,0,0-1.38-7.72,13.77,13.77,0,0,0-4.62-6.4,21.87,21.87,0,0,0-6-3.44,32.88,32.88,0,0,0-6.54-1.82,66.57,66.57,0,0,0-16.07-.9,50.49,50.49,0,0,0-9.14,1.32,27.33,27.33,0,0,0-11.14,5.35,17.84,17.84,0,0,0-5.65,21,17,17,0,0,0,9.85,9.85,39,39,0,0,0,6.94,2.07c4.93,1,9.1,1.81,14.06,2.66M400.3,24.36a46.39,46.39,0,0,0-14.5,0,33.27,33.27,0,0,0-18.65,9.25,30.46,30.46,0,0,0-9.6,20,36.56,36.56,0,0,0,1.25,13.76,31.56,31.56,0,0,0,11.73,17.35,30.31,30.31,0,0,0,12.63,5.86,44,44,0,0,0,9.9,1.06A43.36,43.36,0,0,0,403,90.54a30.31,30.31,0,0,0,12.63-5.86l-13.74-15a9.63,9.63,0,0,1-12.73,4.83h0a9.27,9.27,0,0,1-4.83-4.83,22.22,22.22,0,0,1-1.81-6.17,35.86,35.86,0,0,1,.27-12.86,16.62,16.62,0,0,1,2.52-6.18,9.34,9.34,0,0,1,15.6,0,16.55,16.55,0,0,1,2.52,6.18,35.87,35.87,0,0,1,.28,12.86,22.46,22.46,0,0,1-1.81,6.17l13.74,15A31.54,31.54,0,0,0,427.3,67.33a36.54,36.54,0,0,0,1.25-13.76,30.41,30.41,0,0,0-9.6-20,33.17,33.17,0,0,0-18.65-9.25" />
    <path d="M455.72,32.34a39.87,39.87,0,0,1,9.93-6.45,26,26,0,0,1,18.9-1.4,20.61,20.61,0,0,1,14.27,13.94,30.92,30.92,0,0,1,1.52,9.83V89.54h-25.4V52.42a11.38,11.38,0,0,0-.52-3.48,7,7,0,0,0-4.13-4.57,9.58,9.58,0,0,0-12.08,4,10.36,10.36,0,0,0-1.5,5.53V89.54h-24.6v-64h23.07l.54,6.76" />
    <path d="M505.26,0V16.9h23.91V0Zm0,25.59v64h23.91v-64ZM593.4,81.25a31.18,31.18,0,0,1-17.18,9.49,42.23,42.23,0,0,1-13.41.65A31.54,31.54,0,0,1,546.37,85a34.32,34.32,0,0,1-9.63-10.82A29.83,29.83,0,0,1,533,63.57,35,35,0,0,1,533.73,48a31.57,31.57,0,0,1,24.63-23.22,42.39,42.39,0,0,1,20.15.49,27.9,27.9,0,0,1,12.57,6.89,25.31,25.31,0,0,1,5.5,7.21,19.2,19.2,0,0,1,2.27,10.4H577a10.66,10.66,0,0,0-4.24-7.06,8.89,8.89,0,0,0-10.27-.5A10.17,10.17,0,0,0,558,48a29.54,29.54,0,0,0-.28,17.56,13.33,13.33,0,0,0,3.83,6.34,9.12,9.12,0,0,0,7.9,2.5A7.33,7.33,0,0,0,574,72a9.5,9.5,0,0,0,2.4-4.93,31.41,31.41,0,0,0,.45-3.87h23.05a23.12,23.12,0,0,1-6.54,18.1" />
  </symbol>
  <symbol id="telia" viewBox="0 0 969.25 377.95">
    <g id="g18">
      <g id="g20">
        <g id="g22">
          <g id="g28">
            <path id="path30" class="cls-1" d="M441.31,141q-7.33,0-14.66-11-4.8-7.62-4.79-11.56c0-4.53,2.95-8.7,8.88-12.56a34.73,34.73,0,0,1,19.32-5.78H565.4q11,0,11,10.15a38.13,38.13,0,0,1-6.21,21.16Q564,141,556.66,141H519.15V268.49a38.14,38.14,0,0,1-6.2,21.15q-6.21,9.62-13.54,9.6t-14.66-11q-4.8-7.61-4.8-11.56V141Z" transform="translate(0 0)" />
          </g>
          <g id="g32">
            <path id="path34" class="cls-1" d="M620.4,183.33q-13.54,0-23.13,7.74a33,33,0,0,0-11.84,20.74H652a28.25,28.25,0,0,0-9.6-20.31q-9-8.19-22-8.17m-35,57A36.53,36.53,0,0,0,599,261.59q10.44,8,25.1,8,12.42,0,29.61-8.45a32.87,32.87,0,0,1,14.67-3.95q9,0,9,8.17a32.24,32.24,0,0,1-3.25,14.1q-3.24,6.79-8.31,9.87a81.8,81.8,0,0,1-21.3,9.17,87.35,87.35,0,0,1-23.26,3.25,67.41,67.41,0,0,1-37.09-10.73,75.63,75.63,0,0,1-26.09-27.64,73.74,73.74,0,0,1-9.31-36.09,75.35,75.35,0,0,1,10.16-38.78,72.51,72.51,0,0,1,26.51-26.79,70.3,70.3,0,0,1,35.82-9.46,65.69,65.69,0,0,1,34,8.89,62.28,62.28,0,0,1,23.28,23.56,64.88,64.88,0,0,1,8.18,32.14A29.22,29.22,0,0,1,682,233.1c-3.1,4.79-6.54,7.19-10.29,7.19Z" transform="translate(0 0)" />
          </g>
          <g id="g36">
            <path id="path38" class="cls-1" d="M738.84,299.24q-12.69,0-22-10a33.42,33.42,0,0,1-9.31-23.54V115.92q0-6.19,8.6-11.85a33.12,33.12,0,0,1,18.47-5.63q10.44,0,10.44,9.58V253.54a10.9,10.9,0,0,0,1.55,6.07,11.87,11.87,0,0,0,5.5,4.09q4.5,2,4.51,7.89a34,34,0,0,1-5.64,19q-5.65,8.63-12.13,8.61" transform="translate(0 0)" />
          </g>
          <g id="g40">
            <path id="path42" class="cls-1" d="M795.81,299.24q-6.49,0-14.1-10.72-4.51-7.33-4.51-11V172.32q0-6.18,8.59-11.84a33.08,33.08,0,0,1,18.48-5.63q10.43,0,10.43,9.58V269.62a37.62,37.62,0,0,1-3,14.67,30.4,30.4,0,0,1-7.33,11q-4.36,3.94-8.6,3.95m0-162.45q-7.34,0-15.23-11.56c-3.58-5.46-5.36-9.68-5.36-12.7,0-4.69,3.2-9.12,9.59-13.25a37.26,37.26,0,0,1,20.59-6.2q11.83,0,11.85,10.71A41.56,41.56,0,0,1,814,120a34,34,0,0,1-8.18,12.27q-5,4.53-10,4.52" transform="translate(0 0)" />
          </g>
          <g id="g44">
            <path id="path46" class="cls-1" d="M908.05,264.26a43.22,43.22,0,0,0,23.7-7v-64a46.74,46.74,0,0,0-23.42-5.92q-16.07,0-26.93,10.86t-10.86,27.21q0,16.36,10.86,27.64a35.52,35.52,0,0,0,26.65,11.28m-2.53,35a68.81,68.81,0,0,1-36.81-10.16A71.9,71.9,0,0,1,843,262.43a72.88,72.88,0,0,1-9.16-36,72.07,72.07,0,0,1,10.43-38.08,74.25,74.25,0,0,1,27.08-26.65,71.3,71.3,0,0,1,35.81-9.46q16.38,0,31.88,9,9.85-6.48,19.74-6.48,10.42,0,10.43,9.58V269.62a37.45,37.45,0,0,1-3,14.67,30.4,30.4,0,0,1-7.33,11q-4.38,3.94-8.6,3.95-6.5,0-14.1-10.72a38.71,38.71,0,0,1-4-7.89,35,35,0,0,1-6.07,10.71,18.26,18.26,0,0,1-8,5.92,40,40,0,0,1-12.68,2" transform="translate(0 0)" />
          </g>
          <g id="g48">
            <path id="path50" class="cls-1" d="M249,281.2c49-28.43,84.06-64.1,100.22-102.11a371.09,371.09,0,0,0,10.46-87.86c0-4.34-.21-8.49-.6-12.47-2.86,45.95-62.27,103.75-140.86,141.51-94.79,45.55-165.92,57.8-197.66,23.06a328.33,328.33,0,0,0,42.57,63.44c39,34.7,103.38,22.28,185.87-25.57" transform="translate(0 0)" />
          </g>
          <g id="g52">
            <path id="path54" class="cls-1" d="M207.2,187.7C296.63,144.57,358.91,83.2,348,42.52,330.21,11.72,294.13,0,255.45,0,140.75,0,0,75.59,0,172c0,12.4,2.73,26.26,7.63,40.78,26.16,34.71,106.13,20,199.57-25.11" transform="translate(0 0)" />
          </g>
          <g id="g56">
            <path id="path58" class="cls-1" d="M199.65,324.4h0c-62.89,25.51-98.89,17.38-118.78,1.47l-.29-.23c30.8,30.71,65.89,52.31,96.67,52.31,53.89,0,127.69-65.39,162.6-166.78-19.68,36.62-61.9,81.58-140.2,113.23" transform="translate(0 0)" />
          </g>
        </g>
      </g>
    </g>
  </symbol>
  <symbol id="pwc" viewBox="0 0 743.66 278.87">
    <g id="g2925">
      <path id="path2850" d="M676.76,19.72c-31.69,5.63-48.59,29.58-48.59,71.13,0,42.25,22.53,70.42,55.63,70.42,16.2,0,30.28-5.64,59.86-20.42v34.5c-35.91,16.9-57,21.13-85.21,21.13-31.69,0-54.22-7.75-71.83-26.76-18.31-18.31-28.17-42.26-28.17-69.72C558.45,40.14,603.52-1.41,669-1.41c43,0,73.24,20.42,73.24,49.3,0,19-14.08,32.39-34.5,32.39-10.57,0-19-3.52-31-9.86" transform="translate(0 1.41)" />
      <path id="path2852" d="M518.31,100c28.87-35.92,39.44-50.7,39.44-68.31s-14.09-33.1-33.81-33.1c-11.26,0-21.83,6.34-26.76,12v74L450,147.89V4.23H404.93L330.28,127.46V4.23H304.93L236.62,19.72v17.6l37.32,3.53V193.66h47.19L393,75.35V193.66h52.81" transform="translate(0 1.41)" />
      <path id="path2862" d="M93.66,169.72h10.57c38,0,59.15-23.24,59.15-69.72,0-38.73-16.9-59.86-48.59-59.86-4.23,0-10.56.71-21.13,2.82V169.72Zm0,83.1,31,7v17.6H2.82v-17.6l28.17-7V40.14H0V22.54L73.94,0H93.66V25.35C128.17,4.23,140.14.7,158.45.7c40.85,0,71.83,38,71.83,90.85,0,60.56-41.55,102.11-104.93,102.11-7,0-19-.7-31.69-1.41" transform="translate(0 1.41)" />
    </g>
  </symbol>
  <symbol id="american-eagle-2" viewBox="0 0 694.81 231.87">
    <path class="cls-1" d="M424.06,39.81c7.07-.23,15-2.47,18.14-5.42-2.94,5.19-7.07,9.07-16.49,12-3.18,1.18-2.95,3.18.94,2.94,3.65-.23,8.13-2.71,9.54-3.41-2,2.71-4.12,5.89-13.43,7.65-2,.95-1.41,3.42,3.42,1.77-1.18,1.53-3.65,2.47-6.36,3-2.95.7-2,2.7,2.71,2.23a21,21,0,0,1-9.31,2.71c-2.24.47-.47,3.18,4.83,2a21.44,21.44,0,0,1-8.83,2.48,2.47,2.47,0,0,0-1.3.47c-3.41.47-8.13,1.18-10.48,3.65-3.65,4.12-6.83,13.55-9.31,19.32-2.24,5.65-13,23.32-26,21.08a30.17,30.17,0,0,0,2,4.71c1.42,4.13,5.42,13.43,14.26,19.79,7.53,4.72,11.54,6.6,11.54,11.55,0,2.24-1.18,1.77-2.47,1.65s-2.71.23-2.95,1.76a1.85,1.85,0,0,1-2.71,1.54c-1.65-.48-2.94-.24-3.41,1.17-.71,1.42-1.18.71-2.24.71a3.3,3.3,0,0,0-3.18.94c-.71.94-2.24.71-3.65-.23a3.39,3.39,0,0,0-3.65,0c-1.3.7-2.48-.47-3.65-1.18A2.12,2.12,0,0,0,359,154c-1.18.47-2.24-.47-2.94-1.41a3,3,0,0,0-2.48-1.18c-1.65,0-2.94-.71-3.65-2.94a2.17,2.17,0,0,0-2.24-2c-1.41,0-2.23.47-2.47-.7-.47-1.18-.23-2.48,1.41-3.89,1.18-1.53,4.13-4.71,4.13-7.54,0-2.47-4.95-1.41-5.42,4.95-.47.23-1.18-.48-1.18-1.65-1.18,2.47-2,5.42-1.77,6.83a5.44,5.44,0,0,1-1.41-2.47s-3.89,2.71-4.6,6.59c-.7-3.41-2-2.47-2.23-2.47a3,3,0,0,0-.71.94,4.08,4.08,0,0,0,.71,4.83,12.86,12.86,0,0,1,3.88,1.77c1.18,1.41,2.48,3.89.24,5.65.71-1.18-.24-2.94-1.18-2.94-2.24.47-4.36-1.42-4.95-2-.94-.7-3.41,0-4.94.24a5.2,5.2,0,0,0-3.65,4.59,3.4,3.4,0,0,1-.71-4.59c-.94,0-2.95,1.18-2.95,2.24a2.32,2.32,0,0,1-.23-3.65c-.94,0-2.94.7-2.94,2.23-3.89-4.59,5.89-5.65,8.36-6.36,0-.7-.94-1.64-1.18-2-1.41,0-3.65-1.77-4.71-2.47-3.42-2-6.83-1.77-7.07.23a2.54,2.54,0,0,1,.71-3.89c-1.18-.47-2.48-.23-4.12,1.42,0-.24-.24-2.95,2-3.89-.94-.71-3.65-.47-4.71.47,2.47-5.89,9.77-.47,12,.47s3.65-2.23,4.12-4.94c.71-2,.71-3,1.42-4.36.47-.71.7-1.42,1.18-1.77a5.31,5.31,0,0,1,.7-1.18c.48-1.18.94-2.47,1.42-3.41,1.53-4.6,3.41-10.49-.24-14.49a9.92,9.92,0,0,0-9.07-2.48c-1.41.24-3.65,1-6.12,1.42-1.77.7-3.89,1.18-4.36,1.77-.47-.71.23-1.77.71-2-1.18-1.18-2.95.71-3.18,3.89-3.19-3.65-2-7.3.23-8.83-2.24-3.89,2.47-7.66,6.13-8.84,3.18-1.18,10.6-2.71,8.36-8.13a24.3,24.3,0,0,0-5.66-8.6,92,92,0,0,0-16.13-11.54c-5.19-2.94-10.49-4.71-15.9-6.83-1.18-.71-3-1.53-4.13-2.24,2.48.47,5,.24,3.18-.94a31.09,31.09,0,0,1-6.83-5.89c2.95,1.41,5.42,1.18,3.42,0-2-1.41-6.13-4.36-7.66-8.36,2.48,2.23,6.6,3.65,5.19,2.23a23.78,23.78,0,0,1-6.13-24c.47,8.36,2.24,8.83,2.94,9.54-1.64-8.6,0-16.38,1.42-18.61-.24,8.12,1.18,10.72,3.18,12.48-1.18-9.07,1.41-14.72,2.94-16.14-1.41,9.54-.47,19.91,9.31,25.21a12.18,12.18,0,0,1,.23-3.89,8,8,0,0,0,2.71,4.71c2.48,2.48,12.49,8.6,19.67,14.26,7.66,5.42,13,10.83,17,20.14,4.35,9.07,9.07,17.91,13.66,20.38,0,0,10.84-.24,16.37-23.79,2-9.07,10.72-23,25.92-29,12.72-4.71,29.21-13.19,33.8-20.38.24,3.42-2,8.83-6.12,11.78,7.65-2.24,17.2-9.78,20.38-15.67-.94,6.6-7.42,16.14-15.2,19.56,10.84-2.71,21.32-11.31,23.8-16.38.7,5.89-8.6,17-15,19.32,7.42-1.41,13.78-3.65,17.67-8.6-1.66,4.83-6.61,11-19.33,15.08M329.24,140.29c0-1.42-4.13.23-5.19,2.47.71.71,2,2.48,1.65,3.89a4.43,4.43,0,0,1,.47,2c3.54-1.41,3.07-7.07,3.07-8.36" transform="translate(-8.09 -7.06)" />
    <path class="cls-1" d="M36.92,219.37l-6.48-15.63L24,219.37Zm2.55,6.37H21.06L15.74,238H8.09l19.69-44.69h4.74C36.11,202.23,52.21,238,52.21,238H44.8Z" transform="translate(-8.09 -7.06)" />
    <path class="cls-1" d="M547.53,219.37,541,203.74l-6.48,15.63Zm2.54,6.37H531.66L526.34,238H518.7l19.68-44.69h4.75c3.58,8.91,19.68,44.69,19.68,44.69H555.4Z" transform="translate(-8.09 -7.06)" />
    <polygon class="cls-1" points="153.76 192.62 135.81 192.62 135.81 203.39 153.3 203.39 153.3 209.76 135.81 209.76 135.81 224.58 153.76 224.58 153.76 230.95 129.21 230.95 129.21 186.37 153.76 186.37 153.76 192.62" />
    <path class="cls-1" d="M191,213.93h2.09c6.36,0,9.6-2.44,9.6-7.3,0-4.51-3-6.83-9.26-6.83H191v14.13Zm8.34,5,13.78,19h-8.23l-12.73-18.18H191v18.18h-6.71V193.2h7.87c5.9,0,10.19,1,12.74,3.36a12.27,12.27,0,0,1,4.39,9.72,12.64,12.64,0,0,1-2.77,8.23,10.92,10.92,0,0,1-7.18,4.39" transform="translate(-8.09 -7.06)" />
    <rect class="cls-1" x="225.55" y="186.37" width="6.71" height="44.69" />
    <path class="cls-1" d="M295.93,195.87v8c-3.94-3.24-7.87-4.86-12.16-4.86a15.26,15.26,0,0,0-11.58,5,16.5,16.5,0,0,0-4.74,12,15.61,15.61,0,0,0,4.74,11.81,16.07,16.07,0,0,0,11.7,4.86,15.15,15.15,0,0,0,6-1.15c.93-.47,1.85-.93,2.89-1.51s2-1.51,3.25-2.43v8.1a25.1,25.1,0,0,1-12.16,3.25,23.11,23.11,0,0,1-16.44-6.72A21.93,21.93,0,0,1,260.73,216a23.56,23.56,0,0,1,23.62-23.39,20.75,20.75,0,0,1,11.58,3.25" transform="translate(-8.09 -7.06)" />
    <polygon class="cls-1" points="493.47 192.62 475.52 192.62 475.52 203.39 492.77 203.39 492.77 209.76 475.52 209.76 475.52 224.58 493.47 224.58 493.47 230.95 468.81 230.95 468.81 186.37 493.47 186.37 493.47 192.62" />
    <path class="cls-1" d="M599.16,214.85h18.41v1.51a34.17,34.17,0,0,1-1.15,8.91,20,20,0,0,1-3.94,6.72c-4.05,4.75-9.38,6.95-15.75,6.95a22,22,0,0,1-16.09-6.83,22.8,22.8,0,0,1-6.72-16.21,22.15,22.15,0,0,1,6.84-16.44,22.61,22.61,0,0,1,16.55-6.84,24.88,24.88,0,0,1,9.73,2.09,26.94,26.94,0,0,1,8.45,6.94l-4.86,4.52c-3.59-4.86-8-7.29-13.31-7.29a15.71,15.71,0,0,0-11.81,4.86,16.21,16.21,0,0,0-4.87,12A15.93,15.93,0,0,0,586,228.05a15.75,15.75,0,0,0,10.77,4.4,13,13,0,0,0,8.91-3.36,12.59,12.59,0,0,0,4.4-8.1H598.94v-6.37h.23v.23Z" transform="translate(-8.09 -7.06)" />
    <polygon class="cls-1" points="636.57 186.37 636.57 224.58 649.66 224.58 649.66 230.95 629.98 230.95 629.98 186.37 636.57 186.37" />
    <polygon class="cls-1" points="670.15 186.37 670.15 230.95 694.81 230.95 694.81 224.58 676.87 224.58 676.87 209.76 694.24 209.76 694.24 203.39 676.87 203.39 676.87 192.62 694.81 192.62 694.81 186.37 670.15 186.37" />
    <path class="cls-1" d="M342.13,219.37l-6.49-15.63-6.48,15.63Zm2.54,6.37H326.26L320.94,238h-7.53l19.69-44.69h4.75c3.58,8.91,19.68,44.69,19.68,44.69h-7.64Z" transform="translate(-8.09 -7.06)" />
    <polygon class="cls-1" points="71.44 203.97 83.48 230.95 85.22 230.95 97.61 203.97 101.77 230.95 108.84 230.95 100.96 186.02 99 186.02 84.52 217.63 70.51 186.02 68.54 186.02 59.74 230.95 66.69 230.95 71.44 203.97" />
    <polygon class="cls-1" points="407.67 230.95 407.67 186.37 400.96 186.37 400.96 217.28 369.58 186.02 366.92 186.02 366.92 230.95 373.63 230.95 373.63 199.57 405.01 230.95 407.67 230.95" />
  </symbol>
  <symbol id="american-eagle" viewBox="0 0 694.81 46.32">
    <path class="cls-1" d="M36.92,36.37,30.44,20.74,24,36.37Zm2.55,6.37H21.06L15.74,55H8.09L27.78,10.32h4.74C36.11,19.23,52.21,55,52.21,55H44.8Z" transform="translate(-8.09 -9.61)" />
    <path class="cls-1" d="M547.53,36.37,541,20.74l-6.48,15.63Zm2.54,6.37H531.66L526.34,55H518.7l19.68-44.69h4.75C546.71,19.23,562.81,55,562.81,55H555.4Z" transform="translate(-8.09 -9.61)" />
    <polygon class="cls-1" points="153.76 7.07 135.81 7.07 135.81 17.84 153.3 17.84 153.3 24.21 135.81 24.21 135.81 39.03 153.76 39.03 153.76 45.4 129.21 45.4 129.21 0.82 153.76 0.82 153.76 7.07" />
    <path class="cls-1" d="M191,30.93h2.09c6.36,0,9.6-2.44,9.6-7.3,0-4.51-3-6.83-9.26-6.83H191V30.93Zm8.34,5,13.78,19h-8.23L192.19,36.71H191V54.89h-6.71V10.2h7.87c5.9,0,10.19,1,12.74,3.36a12.27,12.27,0,0,1,4.39,9.72,12.64,12.64,0,0,1-2.77,8.23,10.92,10.92,0,0,1-7.18,4.39" transform="translate(-8.09 -9.61)" />
    <rect class="cls-1" x="225.55" y="0.82" width="6.71" height="44.69" />
    <path class="cls-1" d="M295.93,12.87v8C292,17.61,288.06,16,283.77,16a15.26,15.26,0,0,0-11.58,5,16.5,16.5,0,0,0-4.74,12,15.61,15.61,0,0,0,4.74,11.81,16.07,16.07,0,0,0,11.7,4.86,15.15,15.15,0,0,0,6-1.15c.93-.47,1.85-.93,2.89-1.51s2-1.51,3.25-2.43v8.1a25.1,25.1,0,0,1-12.16,3.25,23.11,23.11,0,0,1-16.44-6.72A21.93,21.93,0,0,1,260.73,33a22.48,22.48,0,0,1,5.68-15.17,22.41,22.41,0,0,1,17.94-8.22,20.75,20.75,0,0,1,11.58,3.25" transform="translate(-8.09 -9.61)" />
    <polygon class="cls-1" points="493.47 7.07 475.52 7.07 475.52 17.84 492.77 17.84 492.77 24.21 475.52 24.21 475.52 39.03 493.47 39.03 493.47 45.4 468.81 45.4 468.81 0.82 493.47 0.82 493.47 7.07" />
    <path class="cls-1" d="M599.16,31.85h18.41v1.51a34.17,34.17,0,0,1-1.15,8.91A20,20,0,0,1,612.48,49c-4.05,4.75-9.38,6.95-15.75,6.95a22,22,0,0,1-16.09-6.83,22.8,22.8,0,0,1-6.72-16.21,22.15,22.15,0,0,1,6.84-16.44,22.61,22.61,0,0,1,16.55-6.84A24.88,24.88,0,0,1,607,11.71a26.94,26.94,0,0,1,8.45,6.94l-4.86,4.52c-3.59-4.86-8-7.29-13.31-7.29a15.71,15.71,0,0,0-11.81,4.86,16.21,16.21,0,0,0-4.87,12A15.93,15.93,0,0,0,586,45.05a15.75,15.75,0,0,0,10.77,4.4,13,13,0,0,0,8.91-3.36,12.59,12.59,0,0,0,4.4-8.1H598.94V31.62h.23v.23Z" transform="translate(-8.09 -9.61)" />
    <polygon class="cls-1" points="636.57 0.82 636.57 39.03 649.66 39.03 649.66 45.4 629.98 45.4 629.98 0.82 636.57 0.82" />
    <polygon class="cls-1" points="670.15 0.82 670.15 45.4 694.81 45.4 694.81 39.03 676.87 39.03 676.87 24.21 694.24 24.21 694.24 17.84 676.87 17.84 676.87 7.07 694.81 7.07 694.81 0.82 670.15 0.82" />
    <path class="cls-1" d="M342.13,36.37l-6.49-15.63-6.48,15.63Zm2.54,6.37H326.26L320.94,55h-7.53L333.1,10.32h4.75C341.43,19.23,357.53,55,357.53,55h-7.64Z" transform="translate(-8.09 -9.61)" />
    <polygon class="cls-1" points="71.44 18.42 83.48 45.4 85.22 45.4 97.61 18.42 101.77 45.4 108.84 45.4 100.96 0.47 99 0.47 84.52 32.08 70.51 0.47 68.54 0.47 59.74 45.4 66.69 45.4 71.44 18.42" />
    <polygon class="cls-1" points="407.67 45.4 407.67 0.82 400.96 0.82 400.96 31.73 369.58 0.47 366.92 0.47 366.92 45.4 373.63 45.4 373.63 14.02 405.01 45.4 407.67 45.4" />
  </symbol>
  <symbol id="bigdrop" viewBox="0 0 116 24">
    <g><path d="M37.96 19.716l-.086-1.29c-3.291 1.847-6.61 2.11-9.928.291-2.137-1.17-3.584-2.968-4.392-5.254-1.698-4.803.358-10.181 4.71-12.4 4.075-2.077 9.372-.864 11.84 2.765l-3.283 2.629c-1.486-1.603-3.263-2.397-5.453-1.912-1.53.343-2.644 1.281-3.398 2.623-1.608 2.862-.422 6.656 2.454 7.945 2.708 1.213 5.964-.098 6.969-2.911H34.44v-4.41h7.341c.026.401.061.7.061.997 0 3.319-.018 6.637.019 9.956 0 .76-.212 1.036-.987.986-.945-.06-1.891-.015-2.914-.015z"/></g><g><path d="M17.47 19.13V.11h4.707v19.02z"/></g><g><path d="M0 .054C1.096.054 2.185.04 3.27.027c2.42-.03 4.817-.06 7.204.062 4.329.221 6.574 4.333 4.609 8.206-.236.465-.184.725.137 1.117 1.543 1.859 1.93 3.955.986 6.195s-2.821 3.448-5.18 3.538c-2.561.096-5.125.075-7.714.054A412.74 412.74 0 0 0 0 19.183zm6.358 14.819c1.451.01 2.882.022 4.308-.035.724-.027 1.202-.483 1.37-1.09.048-.168.073-.347.073-.532-.003-.88-.71-1.89-1.543-1.92-1.4-.05-2.802-.04-4.22-.03-.585.004-1.173.009-1.764.009v3.589c.596 0 1.187.004 1.776.009zM4.61 7.036l1.825.002c1.184.003 2.344.005 3.503-.002.843 0 1.167-.54 1.241-1.311a2.12 2.12 0 0 0 .01-.211c.002-.726-.405-1.146-1.138-1.166a117.594 117.594 0 0 0-3.863-.022c-.523.002-1.048.005-1.578.005V7.02z"/></g><g><path d="M62.11 19.138V.171c.02-.015.039-.032.057-.048.035-.032.066-.061.098-.061 1.085 0 2.172-.013 3.258-.026 2.383-.029 4.767-.057 7.146.052 3.622.164 5.916 3.455 5.372 7.362-.304 2.186-1.359 3.847-3.473 4.876l5.007 6.873c-.455 0-.898.002-1.333.003-1.349.003-2.614.007-3.877-.027-.233 0-.509-.298-.673-.523l-.511-.696c-1.03-1.4-2.06-2.801-3.027-4.245-.483-.723-1.01-1.066-1.88-.953-.363.041-.728.03-1.133.019-.203-.006-.416-.012-.643-.012v6.373zM72.14 8.453c.988-.034 1.445-.68 1.513-1.844.053-.917-.172-1.663-.659-2.008a1.14 1.14 0 0 0-.62-.21c-1.355-.064-2.712-.051-4.089-.038-.568.005-1.14.01-1.717.01V8.471c.562 0 1.116.004 1.666.007 1.321.009 2.614.018 3.906-.025z"/></g><g><path d="M43.85.08l.261-.02c.17-.014.33-.028.488-.028.73 0 1.458-.003 2.188-.006 1.728-.007 3.456-.014 5.186.02 3.92.077 6.978 2.427 8.112 6.187.732 2.303.704 4.78-.079 7.066-1.21 3.503-3.728 5.56-7.415 5.826-1.982.143-3.973.108-5.995.073-.909-.016-1.823-.032-2.746-.032zm9.877 4.664a3.034 3.034 0 0 0-.638-.178c-1.086-.181-2.191-.223-3.316-.265-.489-.018-.982-.037-1.478-.067v10.594c.434 0 .863.008 1.29.016.534.01 1.064.02 1.588.013.429-.004.855-.019 1.28-.051 1.712-.135 2.783-1.193 3.318-2.784a7.558 7.558 0 0 0 0-4.794c-.363-1.121-1.007-2.071-2.044-2.484z"/></g><g><path d="M98.555 14.226a9.738 9.738 0 0 1-9.791 9.771c-5.461-.014-9.759-4.382-9.744-9.908.02-5.508 4.362-9.847 9.83-9.819 5.469.028 9.735 4.425 9.706 9.956zm-7.847-5.252a5.518 5.518 0 0 0-1.863-.334c-3.107-.022-5.43 2.332-5.428 5.5.001 2.212 1.112 4.002 2.832 4.88a5.5 5.5 0 0 0 2.528.594c3.088.002 5.378-2.31 5.387-5.444.006-2.456-1.388-4.44-3.456-5.196z"/></g><g><path d="M99.72 19.13V.175a.667.667 0 0 0 .052-.046c.034-.033.066-.063.097-.063 1.072 0 2.144-.014 3.216-.028 2.337-.03 4.675-.061 7.006.054 3.658.184 5.964 3.55 5.346 7.47-.52 3.31-2.63 5.163-5.98 5.2-1.19.015-2.381.01-3.614.007a553.22 553.22 0 0 0-1.75-.004v6.365zm10.238-10.735c.71-.192 1.077-.741 1.149-1.6.112-1.36-.268-2.299-1.199-2.354-1.35-.08-2.707-.063-4.07-.047-.565.007-1.131.014-1.699.014h-.002v4.075a264.616 264.616 0 0 1 1.654.006c1.18.006 2.32.013 3.462-.014l.15-.003c.204-.006.389-.031.555-.077z"/></g>
  </symbol>
  
  <symbol id="devbridge" viewBox="0 0 156 32">
    <g><g><g><path d="M139.941 3.645a5.62 5.62 0 0 0-3.115-1.418 4.515 4.515 0 0 0-5.03 3.845 5.602 5.602 0 0 0 .35 3.149 4.47 4.47 0 0 0 5.098 2.61c.71-.194 1.403-.446 2.073-.752a.515.515 0 0 0 .33-.572c-.018-.707 0-1.418 0-2.178h-3.434V6.282h5.7c0 .132.026.264.026.395v4.891a.72.72 0 0 1-.188.508c-2.495 2.08-6.076 2.558-8.747 1.245-2.672-1.313-3.781-3.555-3.732-6.418.075-4.289 3.6-7.31 7.874-6.858a7.393 7.393 0 0 1 4.296 1.81z"/></g><g><path d="M49.27 19.8l-1.506 1.783a5.82 5.82 0 0 0-2.573-1.336 4.579 4.579 0 0 0-5.643 4.39 5.5 5.5 0 0 0 .654 3.01c1.031 1.795 3.123 2.612 5.343 2.036a10.122 10.122 0 0 0 1.659-.696.486.486 0 0 0 .248-.335c.019-.779 0-1.561 0-2.381h-3.42v-2.032h5.666c0 .147.03.293.03.436v4.805a.752.752 0 0 1-.327.685 8.408 8.408 0 0 1-6.907 1.674c-3.202-.625-5.177-2.98-5.448-6.35a6.885 6.885 0 0 1 5.203-7.28 7.58 7.58 0 0 1 7.02 1.59z"/></g><g><path d="M154.23 5.912V8.03h-6.772v3.68h7.739v1.914c0 .072-.17.192-.271.2-.298.026-.602 0-.903 0h-8.943V.31h9.981v2.058h-7.107c-.451 0-.56.135-.545.56.026.979 0 1.96 0 3.01z"/></g><g><path d="M62.881.304v2.065h-7.626v3.57h6.772V8.05h-6.764v3.668h7.739v1.93c0 .075-.237.192-.377.192-.966.019-1.933 0-2.9 0h-6.396c-.376 0-.489-.105-.489-.481V.725c0-.135 0-.267.03-.425z"/></g><g><path d="M83.264 18.23h2.321v7.562a6.67 6.67 0 0 0 .128 1.396c.41 1.88 1.926 2.878 3.841 2.596 1.915-.282 2.893-1.505 2.908-3.725.023-2.415 0-4.83 0-7.246v-.568h2.322c0 .124.026.252.026.376 0 2.49.026 4.981 0 7.472a8.75 8.75 0 0 1-.354 2.257 4.695 4.695 0 0 1-3.495 3.36 7.499 7.499 0 0 1-3.848.03 4.922 4.922 0 0 1-3.781-4.263 8.619 8.619 0 0 1-.102-1.128V18.56c.008-.086.023-.188.034-.331z"/></g><g><path d="M71.435 10.703c.463-1.181.888-2.257 1.31-3.337.865-2.216 1.738-4.428 2.584-6.651a.598.598 0 0 1 .689-.456c.654.027 1.313 0 2.039 0l-.753 1.817-4.702 11.407c-.132.32-.279.478-.655.444-.433-.041-.877 0-1.31-.022a.553.553 0 0 1-.398-.252C68.419 9.27 66.606 4.882 64.803.485a1.623 1.623 0 0 1-.053-.233c.824 0 1.614 0 2.408.019.105 0 .244.23.3.376 1.255 3.153 2.495 6.307 3.722 9.462.075.154.143.32.255.594z"/></g><g><path d="M108.65.29h2.284V13.8h-2.284z"/></g><g><path d="M31.297 31.669H0V.33h31.297zm-19.68-17.114a5.421 5.421 0 0 0-4.172.226 5.207 5.207 0 0 0-2.75 3.092 5.354 5.354 0 0 0 1.281 5.499 5.35 5.35 0 0 0 1.048.821 5.421 5.421 0 0 0 7.148-1.504c.92.969 2.03 1.737 3.262 2.257l1.505-2.6-.007-.003.003-.004-.142-.073c-.05-.026-.087-.046-.125-.063-1.566-.702-2.688-1.71-3.341-3.029-.42-.849-.645-1.825-.67-2.93-.022-1.367-.015-2.736-.007-4.104.004-.684.007-1.368.007-2.05 0-.101-.007-.196-.015-.291-.007-.095-.015-.188-.015-.285h-.003v-.008h-3.01l.004 5.044zm7.619-8.646c0-.376-.117-.47-.463-.462a35 35 0 0 1-1.452.005 69.483 69.483 0 0 0-.722-.005c-.135 0-.225.02-.283.072-.074.06-.105.165-.105.327.01 1.33.005 2.658 0 3.987-.006 1.932-.013 3.864.023 5.795a5.266 5.266 0 0 0 4.932 5.248 5.346 5.346 0 0 0 4.404-1.766 5.346 5.346 0 0 0-1.947-8.513 5.47 5.47 0 0 0-4.387.128z"/></g><g><path d="M80.48.22c.727.014 1.45.02 2.171.026 1.725.014 3.435.028 5.146.158a3.322 3.322 0 0 1 1.705 6.099l-.433.278.677.309a3.089 3.089 0 0 1 1.987 3.01 3.274 3.274 0 0 1-1.983 3.137 6.726 6.726 0 0 1-2.9.594c-1.37.013-2.74.009-4.109.005-.684-.002-1.367-.005-2.05-.005a2.102 2.102 0 0 1-.211-.026zm7.024 7.844c-1.01-.045-2.023-.061-3.035-.077l-.761-.013h-.918v3.724a247.494 247.494 0 0 1 1.558.005h.003c1.018.006 2.02.01 3.021-.005.396-.031.78-.145 1.129-.334a1.554 1.554 0 0 0 .877-1.558 1.505 1.505 0 0 0-.45-1.138 1.505 1.505 0 0 0-.517-.34 2.536 2.536 0 0 0-.907-.264zM82.79 5.961h3.83c.18-.01.358-.043.53-.098 1.005-.274 1.505-.895 1.46-1.843a1.584 1.584 0 0 0-.146-.643 1.583 1.583 0 0 0-1.434-.927c-.943-.072-1.893-.08-2.842-.087-.39-.003-.782-.007-1.172-.014a1.448 1.448 0 0 0-.23.037V5.96h.004z"/></g><g><path d="M52.94 18.24c.076 0 .15-.006.225-.013.073-.007.146-.013.219-.013.544 0 1.089-.004 1.633-.007a104.53 104.53 0 0 1 4.01.026c.81.02 1.612.166 2.378.432 1.625.591 2.445 1.836 2.536 3.56.097 1.813-.602 3.193-2.258 4.029-.197.1-.404.182-.624.27-.104.04-.21.083-.32.128l3.638 5.113h-2.682c-.101 0-.216-.162-.298-.278a2.032 2.032 0 0 0-.01-.015c-.12-.168-.24-.336-.358-.505-.849-1.197-1.698-2.396-2.532-3.604a.704.704 0 0 0-.674-.338c-.707.019-1.418.019-2.125 0-.35 0-.47.09-.467.459.015.832.01 1.666.005 2.502-.002.42-.005.84-.005 1.26l.023.504H52.94zm8.646 4.263a2.04 2.04 0 0 0-1.821-2.03 11.926 11.926 0 0 0-1.98-.113H55.28v4.56c.39 0 .778.002 1.162.004.804.004 1.596.008 2.385-.006h.433c.227-.015.45-.062.663-.14a2.167 2.167 0 0 0 1.663-2.209v-.066z"/></g><g><path d="M66.86 22.266a6.971 6.971 0 0 1 6.58-4.305c4.03 0 7.085 3.01 7.081 7.013-.004 4.003-3.074 7.005-7.1 7.009-4.047 0-7.102-3.01-7.09-7.001a6.971 6.971 0 0 1 .529-2.716zm11.186 2.67c0-.14 0-.336-.032-.543a4.617 4.617 0 0 0-.006-.062c-.263-1.802-1.151-3.175-2.874-3.86a4.353 4.353 0 0 0-2.49-.314 4.353 4.353 0 0 0-2.247 1.108c-1.26 1.102-1.667 2.565-1.561 4.206a4.631 4.631 0 0 0 5.447 4.281c2.258-.425 3.762-2.317 3.763-4.815z"/></g><g><path d="M94.49 13.787V.307c.112-.018.225-.03.339-.038.535 0 1.071-.002 1.607-.004 1.488-.007 2.976-.013 4.461.03a6.561 6.561 0 0 1 2.107.437c1.602.602 2.415 1.84 2.51 3.537.097 1.828-.614 3.224-2.3 4.052-.228.112-.464.203-.725.303l-.189.073 3.642 5.116h-2.633c-.125 0-.264-.18-.354-.308a481.51 481.51 0 0 1-2.893-4.105.65.65 0 0 0-.629-.33c-.567.01-1.128.006-1.706.003a156.02 156.02 0 0 0-.904-.004v4.718zm2.344-6.798h.716c.293 0 .585.004.877.007.71.009 1.418.017 2.123-.02l.193-.01c1.004-.056 1.88-.455 2.257-1.504.546-1.505-.436-2.927-2.14-3.01-.954-.05-1.91-.043-2.866-.035a162.663 162.663 0 0 1-1.047.004.448.448 0 0 0-.136.053l.012 4.515h.01z"/></g><g><path d="M37.7.29c.093-.014.188-.023.282-.026.525 0 1.05-.006 1.574-.012 1.271-.015 2.542-.03 3.81.043 2.52.15 4.567 1.241 5.786 3.532 1.904 3.586.399 8.841-4.838 9.816-1.06.144-2.13.202-3.198.173-.845.028-1.69.025-2.548.021l-.868-.002zm2.344 11.35c.36 0 .716.009 1.068.017.246.006.491.012.734.015a16 16 0 0 0 1.539-.035c2.298-.229 3.724-1.644 4.029-3.942a5.32 5.32 0 0 0 .045-.698c.004-2.115-1.27-4.09-3.683-4.457-.824-.125-1.67-.113-2.515-.102-.379.006-.758.01-1.134.004-.015 0-.03.014-.048.032l-.035.032z"/></g><g><path d="M121.559.511c3.348.515 5.42 3.348 5.346 6.825a6.629 6.629 0 0 1-5.621 6.335 11.25 11.25 0 0 1-1.663.154h-4.515c-.244 0-.436 0-.436-.338V.492c.014-.105.034-.21.06-.312.703.029 1.407.04 2.109.051 1.59.025 3.172.05 4.72.28zm-1.532 11.166c.722-.046 1.367-.202 1.926-.459 1.466-.665 2.349-2.016 2.499-3.88a4.368 4.368 0 0 0-3.683-4.804c-.988-.11-1.983-.15-2.976-.124h-.753v9.267c.348 0 .69.006 1.028.012.664.012 1.314.023 1.96-.012z"/></g><g><path d="M98.539 18.21h5.267a6.682 6.682 0 0 1 1.561.222c2.11.572 3.303 2.178 3.28 4.364a4.243 4.243 0 0 1-3.562 4.33 20.376 20.376 0 0 1-3.461.234c-.037 0-.072.002-.106.003-.989.033-.989.033-.989 1.088v2.897c0 .312-.087.428-.41.413a17.47 17.47 0 0 0-1.539 0c-.338.02-.436-.097-.436-.432V18.248h-.004c.09 0 .166-.011.234-.022.058-.008.112-.016.165-.016zm3.055 7.085c.884-.013 1.75-.026 2.596-.144a2.314 2.314 0 0 0 2.065-2.37c-.004-1.26-.707-2.115-2.062-2.34a16.01 16.01 0 0 0-2.257-.09h-1.407l.004 4.966.061-.003c.336-.01.67-.015 1-.02z"/></g><g><path d="M9.77 21.925a2.329 2.329 0 0 1-2.328-2.321 2.34 2.34 0 1 1 4.676 0 2.325 2.325 0 0 1-2.347 2.321z"/></g><g><path d="M23.896 15.532a2.299 2.299 0 0 1-2.321 2.328 2.325 2.325 0 0 1 0-4.65 2.287 2.287 0 0 1 2.321 2.322z"/></g></g></g>
  </symbol>
  
  <symbol id="radley" viewBox="0 0 139 24">
    <g><g><g><path d="M63.383.045a6.24 6.24 0 0 1 4.397 1.831 6.192 6.192 0 0 1 1.81 4.392v11.588a6.096 6.096 0 0 1-1.795 4.344 6.139 6.139 0 0 1-4.359 1.793h-22.58c-.37 0-.726-.147-.987-.407a1.388 1.388 0 0 1 .987-2.374h3.311L36.62 4.776 29.07 21.212h3.062c.37 0 .725.147.987.407a1.388 1.388 0 0 1-.987 2.374l-9.27-.008a1.399 1.399 0 0 1-1.193-.707c-.1-.186-.472-.84-.948-1.677-1.034-1.816-2.555-4.49-2.824-5.078-.628-1.294-1.022-2.467-1.022-3.916 0-1.372.56-2.485 1.06-3.482l.04-.08.01-.017c.506-.97.933-1.787.933-2.76a3.433 3.433 0 0 0-.996-2.425A3.46 3.46 0 0 0 15.5 2.821H7.29v18.398h3.064c.362.012.705.164.956.423a1.387 1.387 0 0 1-.956 2.356H1.478a1.4 1.4 0 0 1-1.364-.837 1.386 1.386 0 0 1 .805-1.858c.179-.064.369-.092.559-.081H4.5V2.824H1.478a1.38 1.38 0 0 1-1.308-.84A1.398 1.398 0 0 1 .936.145c.171-.07.356-.106.542-.105h14.02a6.242 6.242 0 0 1 4.397 1.832 6.193 6.193 0 0 1 1.81 4.391c0 1.603-.636 2.871-1.177 3.95l-.04.08c-.472.87-.825 1.565-.825 2.309 0 .94.274 1.761.746 2.779.248.491 1.985 3.592 3.27 5.831h2.323L35.316.821A1.375 1.375 0 0 1 36.534 0a1.493 1.493 0 0 1 1.338.82l9.348 20.388h4.102V2.824H48.65a1.38 1.38 0 0 1-1.306-.837A1.399 1.399 0 0 1 48.107.15c.172-.07.357-.106.543-.105zm3.18 19.096c.165-.409.246-.847.24-1.288V6.267c0-.908-.359-1.778-.999-2.423a3.461 3.461 0 0 0-2.42-1.022H54.11V21.22l9.342-.008a3.33 3.33 0 0 0 2.386-.976c.313-.313.559-.685.724-1.095zm5.65 4.847a1.399 1.399 0 0 1-1.332-.846 1.386 1.386 0 0 1 .784-1.84c.174-.068.361-.099.548-.093h3.142V2.893h-3.063a1.401 1.401 0 0 1-.98-.422 1.391 1.391 0 0 1-.395-.988 1.357 1.357 0 0 1 .847-1.268 1.37 1.37 0 0 1 .528-.101h7.336a1.38 1.38 0 0 1 1.305.836 1.399 1.399 0 0 1-.763 1.837c-.172.07-.356.107-.542.106h-1.482v18.316h9.665v-1.37a1.385 1.385 0 0 1 .85-1.326 1.4 1.4 0 0 1 1.847.78c.067.175.099.36.092.547v2.774c-.003.363-.15.71-.407.967a1.397 1.397 0 0 1-.969.407zm21.747.009a1.401 1.401 0 0 1-1.332-.847 1.386 1.386 0 0 1 .784-1.84 1.4 1.4 0 0 1 .548-.092h3.143V2.878h-3.28a1.38 1.38 0 0 1-1.306-.835 1.398 1.398 0 0 1 .765-1.835c.172-.071.356-.107.542-.106h18.405a1.414 1.414 0 0 1 1.307.869c.071.171.106.355.106.54v2.82a1.394 1.394 0 0 1-2.38.982 1.383 1.383 0 0 1-.408-.981V2.879H99.893v7.73h10.214c.37 0 .724.147.986.407a1.383 1.383 0 0 1 0 1.964c-.262.26-.616.407-.986.407H99.893v7.828h10.954v-3.641a1.392 1.392 0 0 1 1.394-1.39 1.392 1.392 0 0 1 1.395 1.389v5.05a1.397 1.397 0 0 1-1.407 1.374zm34.693-10.466v7.68h1.085a1.338 1.338 0 0 1 .962.372 1.336 1.336 0 0 1 .414.943c0 .783-.628 1.459-1.376 1.459h-4.947a1.39 1.39 0 0 1 0-2.779l1.074-.01v-7.68l-7.439-10.638h-1.315a1.384 1.384 0 0 1-.998-.387 1.361 1.361 0 0 1-.417-.983 1.41 1.41 0 0 1 1.415-1.395h6.432a1.414 1.414 0 0 1 1.308.87 1.392 1.392 0 0 1-.002 1.073 1.359 1.359 0 0 1-.768.744 1.375 1.375 0 0 1-.538.092h-1.696l5.436 7.782 5.448-7.77h-1.648a1.367 1.367 0 0 1-1.271-.845 1.37 1.37 0 0 1-.102-.525 1.393 1.393 0 0 1 1.373-1.41h6.424a1.403 1.403 0 0 1 1.308.87c.07.171.107.355.106.54a1.386 1.386 0 0 1-.416.982 1.39 1.39 0 0 1-.998.387h-1.36z"/></g></g></g>
  </symbol>
  
  <symbol id="thewoo" viewBox="0 0 125 40">
    <g><g><g><g><g><g><g><path d="M2.357 17.69H0v-.499h5.358v.499H3v5.38h-.643z"/></g></g><g><g><path d="M16.123 17.192h.673v2.59h4.038v-2.59h.673v5.878h-.673v-2.79h-4.038v2.79h-.673z"/></g></g><g><g><path d="M31.822 17.191h4.967v.499h-4.21v2.092h3.946v.498h-3.946v2.292h4.393v.498h-5.15z"/></g></g></g><g><g><g><path d="M85.628 17.68h.562l1.454 5.18h.017l1.479-5.18h.694l1.48 5.18h.016l1.454-5.18h.562l-1.702 5.85h-.67l-1.479-5.206h-.016l-1.48 5.206h-.669z"/></g></g><g><g><path d="M102.24 20.768c0-.448.08-.863.24-1.237.16-.374.382-.706.667-.98a3.105 3.105 0 0 1 1.033-.639c.4-.158.836-.233 1.317-.233a3.6 3.6 0 0 1 1.326.233c.4.158.739.365 1.024.64.284.273.507.605.667.98.16.373.24.788.24 1.236 0 .449-.08.864-.24 1.238-.16.382-.383.705-.667.98-.285.273-.623.49-1.024.639a3.6 3.6 0 0 1-1.326.232c-.48 0-.917-.074-1.317-.232-.4-.15-.748-.366-1.033-.64a2.892 2.892 0 0 1-.667-.98 3.117 3.117 0 0 1-.24-1.237zm.587 0c0 .366.062.706.187 1.022.124.315.302.59.534.822.231.232.516.415.845.548.33.133.694.2 1.104.2.41 0 .783-.067 1.112-.2a2.402 2.402 0 0 0 1.37-1.37c.126-.316.188-.656.188-1.022 0-.365-.062-.705-.187-1.021a2.402 2.402 0 0 0-1.37-1.37c-.33-.133-.704-.2-1.113-.2-.41 0-.774.067-1.104.2-.33.133-.614.315-.845.548-.232.232-.41.507-.534.822a2.756 2.756 0 0 0-.187 1.021z"/></g></g><g><g><path d="M118.485 20.768c0-.448.08-.863.24-1.237.161-.374.383-.706.668-.98a3.105 3.105 0 0 1 1.033-.639c.4-.158.836-.233 1.317-.233a3.6 3.6 0 0 1 1.326.233c.4.158.739.365 1.024.64.284.273.507.605.667.98.16.373.24.788.24 1.236 0 .449-.08.864-.24 1.238-.16.382-.383.705-.667.98-.285.273-.623.49-1.024.639a3.6 3.6 0 0 1-1.326.232c-.48 0-.917-.074-1.317-.232-.4-.15-.748-.366-1.033-.64a2.892 2.892 0 0 1-.667-.98 3.117 3.117 0 0 1-.24-1.237zm.588 0c0 .366.062.706.187 1.022.124.315.302.59.534.822.231.232.516.415.845.548.33.133.695.2 1.104.2.41 0 .783-.067 1.112-.2a2.402 2.402 0 0 0 1.37-1.37c.126-.316.188-.656.188-1.022 0-.365-.062-.705-.187-1.021a2.402 2.402 0 0 0-1.37-1.37c-.33-.133-.704-.2-1.113-.2-.41 0-.774.067-1.104.2-.329.133-.614.315-.845.548-.232.232-.41.507-.534.822a2.756 2.756 0 0 0-.187 1.021z"/></g></g></g><g><g><path d="M48.8.002V40C59.62 32.488 67.276 20.017 67.115.002h-2.47c-.578 13.501-4.15 25.294-13.163 34.14L51.47 0z"/></g><g><g><path d="M75.612.002V40C64.792 32.488 57.136 20.017 57.297.002h2.471c.577 13.501 4.149 25.294 13.162 34.14L72.943 0z"/></g></g></g></g></g></g></g>
  </symbol>
  
  <symbol id="thelab" viewBox="0 0 114 40">
    <path d="M20.072 24.468h-.073c-2.432 0-4.432-2-4.432-4.432V20c.004-2.442 1.997-4.456 4.44-4.486 2.464.01 4.496 2.021 4.53 4.486-.014 2.445-2.02 4.453-4.465 4.469z"/><path d="M15.79 35.457c.03-2.44 2.042-4.432 4.483-4.435 2.473.037 4.484 2.089 4.472 4.563-.046 2.44-2.07 4.422-4.513 4.413h-.008c-2.434 0-4.436-2.002-4.436-4.435 0-.036 0-.07.002-.106z"/><path d="M19.854 0c2.4.084 4.33 2.082 4.33 4.484 0 2.428-1.971 4.438-4.399 4.486-2.4-.085-4.329-2.083-4.329-4.484 0-2.428 1.971-4.438 4.398-4.486z"/><path d="M8.89 13.84c-2.45-.015-4.458-2.034-4.458-4.484 0-2.459 2.023-4.483 4.483-4.483 2.458 0 4.48 2.022 4.483 4.48v.033c0 2.443-2.01 4.454-4.454 4.454h-.055z"/><path d="M35.631 31.084c-.004 2.44-1.998 4.453-4.439 4.479a4.01 4.01 0 0 1-.114.001c-2.461 0-4.487-2.025-4.487-4.486 0-2.462 2.026-4.487 4.487-4.487.046 0 .093 0 .14.002 2.44.024 4.432 2.05 4.413 4.49z"/><path d="M35.432 8.826c.002.052.002.103.002.155 0 2.384-1.93 4.362-4.314 4.42a4.28 4.28 0 0 1-.153.002c-2.453 0-4.474-2.011-4.487-4.464.02-2.439 1.998-4.45 4.436-4.508 2.44-.019 4.468 1.957 4.516 4.395z"/><path d="M35.564 15.514l.091-.001c2.43 0 4.429 1.999 4.429 4.428v.03l.001.128c0 2.455-2.02 4.476-4.475 4.476-2.456 0-4.476-2.02-4.476-4.476 0-.042 0-.085.002-.128v-.047c0-2.42 1.99-4.41 4.41-4.41h.018z"/><path d="M4.472 24.9C2.018 24.9 0 22.88 0 20.427s2.019-4.472 4.472-4.472c2.453 0 4.472 2.02 4.472 4.472v.066c0 2.418-1.99 4.407-4.407 4.407h-.065z"/><path d="M9.133 26.591c2.457 0 4.48 2.022 4.48 4.48 0 2.457-2.023 4.479-4.48 4.479-2.457 0-4.48-2.022-4.48-4.48 0-2.457 2.023-4.479 4.48-4.479z"/><path d="M53.437 20.246h-2.174v3.018c0 .29.018.56.036.805.036.246.09.47.162.649a.86.86 0 0 0 .395.402c.162.112.198.157.485.157.144 0 .341.022.575-.067.305-.112.395-.358.521-.492v2.616c-.27.313-.773.492-1.096.581-.413.112-.719.112-1.042.112-.45 0-.629 0-1.006-.112a2.526 2.526 0 0 1-1.006-.581c-.288-.246-.503-.582-.665-1.006-.162-.425-.252-.917-.252-1.52v-4.563h-1.724l.287-2.683h1.437v-3.421l2.893-.402v3.823h2.174z"/><path d="M59.262 9.75v8.587h.045c.067-.201.2-.425.38-.626a3.16 3.16 0 0 1 .648-.559c.246-.156.56-.29.895-.402a3.558 3.558 0 0 1 1.118-.157c.85 0 1.543.134 2.057.38.514.269.917.626 1.23 1.096.29.47.47 1.006.581 1.632.112.626.157 1.297.157 2.035v5.993h-3.355v-5.166c0-.313 0-.626-.022-.961a3.193 3.193 0 0 0-.201-.94 1.617 1.617 0 0 0-.514-.692c-.246-.18-.582-.269-1.007-.269-.425 0-.782.09-1.05.246a1.48 1.48 0 0 0-.604.626c-.157.246-.246.537-.291.872-.045.336-.067.671-.067 1.029v5.255h-3.31V9.75z"/><path d="M79.038 25.656c-.536.693-1.207 1.207-2.034 1.587a6.03 6.03 0 0 1-2.55.56c-.827 0-1.61-.135-2.347-.403a5.22 5.22 0 0 1-1.923-1.163 5.189 5.189 0 0 1-1.297-1.789c-.313-.693-.47-1.476-.47-2.348 0-.872.157-1.654.47-2.347a5.496 5.496 0 0 1 1.297-1.812 5.492 5.492 0 0 1 1.923-1.14 6.817 6.817 0 0 1 2.347-.403c.783 0 1.476.135 2.125.403a4.592 4.592 0 0 1 1.61 1.14c.425.515.76 1.118 1.006 1.812.246.693.358 1.475.358 2.347v1.051H71.77c.134.649.425 1.14.872 1.52.447.381 1.006.582 1.655.582.559 0 1.029-.134 1.409-.38.38-.246.693-.559.984-.939zm-2.84-4.785c.023-.56-.178-.582-.558-.984-.38-.403-.895-.604-1.499-.604-.38 0-.693.045-.983.179-.291.112-.515.268-.716.447a1.932 1.932 0 0 0-.47.649c-.111.245-.178.044-.2.313z"/><path d="M85.51 9.75h-3.354V27.73h3.354z"/><path d="M91.38 21.412c.115-.262.27-.505.481-.728.193-.222.424-.384.713-.505.27-.122.558-.182.886-.182.308 0 .597.06.886.182.27.121.5.283.713.505.192.223.346.466.481.749.116.303.173.607.173.93 0 .324-.057.627-.173.91a3.257 3.257 0 0 1-.481.749 2.217 2.217 0 0 1-.713.505 2.245 2.245 0 0 1-.886.183c-.328 0-.617-.061-.886-.183a1.867 1.867 0 0 1-.713-.505 2.224 2.224 0 0 1-.481-.769 2.415 2.415 0 0 1-.174-.93c0-.324.058-.627.174-.91zm4.218-3.216c-.81-.91-1.83-1.355-3.063-1.355-.732 0-1.406.142-2.003.425a5.106 5.106 0 0 0-1.56 1.193 5.513 5.513 0 0 0-1.021 1.74 6.07 6.07 0 0 0-.366 2.124c0 .789.135 1.537.385 2.205.25.667.597 1.254 1.04 1.76.443.505.983.89 1.58 1.152a4.612 4.612 0 0 0 1.984.425c1.271 0 2.273-.485 3.024-1.477v1.153h3.506V17.165h-3.506z"/><path d="M109.335 23.465c-.14.283-.3.526-.5.748-.22.223-.46.385-.74.506-.281.121-.581.182-.901.182-.32 0-.62-.06-.9-.202-.3-.122-.54-.283-.761-.506a2.052 2.052 0 0 1-.5-.728 2.308 2.308 0 0 1-.18-.91c0-.324.06-.627.2-.93.12-.284.28-.527.5-.75.2-.222.44-.384.72-.505.28-.121.58-.182.9-.182.34 0 .641.06.921.182.28.142.52.303.74.526.22.222.38.465.5.748.12.304.18.607.18.93 0 .304-.06.608-.18.89zM101.71 9.75v17.982h3.242V26.58c.78.991 1.82 1.476 3.161 1.476.74 0 1.42-.141 2.06-.445a5 5 0 0 0 1.642-1.173c.46-.505.82-1.092 1.1-1.76.26-.667.38-1.395.38-2.164a5.9 5.9 0 0 0-.38-2.144 5.808 5.808 0 0 0-1.04-1.74c-.46-.485-1-.87-1.621-1.173a5.136 5.136 0 0 0-2.1-.424c-1.281 0-2.342.445-3.202 1.355V9.75z"/>
  </symbol>
  
  <symbol id="wunderman-thompson" viewBox="0 0 116 40">
    <g><g><g><path d="M13.606 19.61c.126-.612.259-1.224.377-1.84.432-2.246.864-4.494 1.28-6.74.061-.331.19-.473.54-.477 1.06-.014 1.06-.026 1.258 1.007.484 2.533.97 5.067 1.458 7.6.03.178.12.34.253.461.098-.48.206-.957.293-1.439.431-2.38.852-4.76 1.291-7.132.031-.167.156-.428.273-.449.293-.052.606 0 .906.042.032 0 .058.26.034.391-.692 3.66-1.388 7.324-2.087 10.99-.067.35-.235.478-.6.473-.82-.015-.813 0-.976-.816a2290.78 2290.78 0 0 0-1.653-8.062.377.377 0 0 0-.21-.259c-.12.556-.246 1.111-.36 1.67-.465 2.305-.949 4.609-1.38 6.921-.118.635-.526.505-.935.546-.438.044-.561-.186-.63-.55-.688-3.635-1.382-7.269-2.082-10.901-.075-.384 0-.495.384-.495.755 0 .766-.016.902.737.468 2.587.932 5.173 1.392 7.76.034.19.088.374.133.56z"/></g><g><path d="M6.491 8.495c0 .504-.012 1.009 0 1.512.01.326-.098.483-.445.472a26.131 26.131 0 0 0-1.661 0c-.337.01-.464-.122-.459-.458.014-.96.006-1.92 0-2.88 0-.665 0-.666-.684-.667-.91 0-1.822-.014-2.735.006-.391.009-.521-.14-.505-.515.02-.503.023-1.01 0-1.512-.019-.399.12-.55.531-.54.96.023 1.92-.011 2.88.015.414.012.531-.139.522-.533-.021-.96.006-1.92-.013-2.88-.006-.376.116-.531.505-.514.535.024 1.074.019 1.61 0 .343-.01.456.133.451.464-.013.944.019 1.889-.014 2.834-.016.474.09.662.611.636.942-.046 1.888 0 2.833-.019.36-.006.499.121.489.483-.02.536-.021 1.075 0 1.61.015.373-.146.477-.494.472-.977-.016-1.954.008-2.931-.01-.391-.009-.52.134-.5.513.028.506.01 1.007.01 1.51z"/></g><g><path d="M86.867 16.506c.136-.247.23-.408.314-.574.83-1.642 1.657-3.283 2.485-4.923.195-.391 1.002-.646 1.367-.405.098.06.153.244.154.371.008 3.695 0 7.39.012 11.085 0 .505-.328.413-.63.43-.355.022-.587-.029-.587-.483.015-2.67.008-5.339 0-8.012 0-.195-.034-.395-.053-.593l-.129-.023c-.09.161-.195.318-.272.488-.686 1.385-1.37 2.771-2.052 4.159-.136.278-.273.476-.645.473-.372-.003-.504-.216-.638-.488a792.373 792.373 0 0 0-2.057-4.155c-.075-.152-.167-.294-.251-.441l-.13.031v.505c0 2.653-.016 5.307.012 7.96.006.557-.253.579-.684.591-.465.013-.62-.126-.617-.606.018-3.566.008-7.133.015-10.694 0-.234-.13-.55.26-.639.535-.124 1.05 0 1.214.323.488.957.967 1.918 1.453 2.876.39.769.781 1.537 1.172 2.303.082.122.167.236.287.441z"/></g><g><path d="M55.229 30.717c-.083.15-.169.293-.245.448l-2.065 4.152c-.134.268-.211.566-.633.57-.422.004-.512-.277-.648-.549-.69-1.384-1.379-2.768-2.066-4.153a1.038 1.038 0 0 0-.364-.437c-.009.18-.025.362-.025.544 0 2.638-.017 5.276.011 7.914.006.554-.245.586-.684.595-.458.009-.623-.116-.62-.603.018-3.549.018-7.099 0-10.65 0-.46.12-.613.599-.633.572-.022.865.175 1.11.694.746 1.573 1.555 3.117 2.346 4.67.077.155.17.301.313.55.145-.242.249-.391.33-.556.834-1.637 1.666-3.275 2.497-4.914.19-.374 1.081-.622 1.384-.36.107.091.132.318.133.483.009 2.035.006 4.07.006 6.106 0 1.547-.017 3.094.01 4.64.008.474-.173.577-.603.572-.412-.005-.621-.071-.617-.559.02-2.621.01-5.244.01-7.865v-.613z"/></g><g><path d="M114.045 19.635v-.556c0-2.653 0-5.306.008-7.957 0-.176.072-.489.155-.502.3-.052.607-.045.904.019.071.015.12.31.12.477.007 2.587 0 5.178 0 7.761 0 .993.012 1.986-.01 2.978 0 .21-.128.591-.213.596-.372.02-.817.24-1.097-.241-.637-1.097-1.286-2.188-1.928-3.281-1.013-1.724-2.026-3.45-3.039-5.178a.864.864 0 0 0-.381-.359c-.03.196-.049.394-.058.592-.004 2.62-.004 5.24 0 7.86 0 .577-.54.907-1.03.598-.118-.073-.163-.334-.164-.509-.008-3.042-.01-6.085-.006-9.128 0-.586.013-1.172-.005-1.759-.011-.348.105-.474.472-.5.526-.04.815.153 1.074.61 1.564 2.705 3.152 5.391 4.735 8.082.088.15.189.293.283.435z"/></g><g><path d="M43.213 19.682v-.567c0-2.654.012-5.308-.01-7.962 0-.489.174-.597.625-.601.452-.004.587.149.58.594-.014 3.583 0 7.165-.019 10.747 0 .2-.145.563-.244.57-.358.026-.79.21-1.054-.247-.54-.928-1.09-1.85-1.634-2.777l-3.336-5.683c-.085-.145-.188-.279-.283-.418l-.122.032c-.015.195-.042.397-.042.597 0 2.638 0 5.276-.009 7.914 0 .195-.058.53-.151.553a2.163 2.163 0 0 1-.903 0c-.073-.014-.13-.305-.132-.47-.01-1.66-.006-3.321-.006-4.982 0-1.905-.006-3.81.007-5.715 0-.244-.16-.64.258-.673.4-.03.852-.186 1.153.352.851 1.518 1.752 3.009 2.638 4.51.758 1.291 1.517 2.581 2.277 3.872.08.136.176.263.265.39z"/></g><g><path d="M96.379 30.725v.52c0 2.653-.01 5.306.008 7.96 0 .441-.116.605-.577.596-.434-.008-.643-.082-.64-.587.019-3.58.006-7.162.02-10.747 0-.202.137-.568.239-.578.356-.036.776-.204 1.043.26.755 1.31 1.53 2.61 2.296 3.913l2.718 4.63c.064.11.144.21.308.446.023-.31.046-.488.046-.665 0-2.67 0-5.34.009-8.012 0-.195.062-.528.153-.55.299-.06.606-.058.903.009.073.015.13.307.13.472.01 1.481.006 2.962.006 4.443 0 2.1 0 4.202-.006 6.3 0 .232.133.601-.26.625-.373.023-.8.182-1.08-.305-1.089-1.89-2.202-3.764-3.307-5.643l-1.758-2.984c-.033-.055-.067-.109-.098-.164z"/></g><g><path d="M60.308 16.533c0-1.805.01-3.615-.008-5.418-.005-.422.122-.569.555-.565 2.052.019 4.104.023 6.155 0 .489-.006.553.203.558.616.005.43-.097.611-.571.603-1.628-.023-3.256 0-4.885-.015-.459 0-.636.138-.622.615.03 1.008.023 2.018 0 3.03-.007.399.128.545.535.54 1.432-.017 2.864.011 4.299-.016.472-.009.575.174.574.602 0 .428-.098.615-.572.605-1.43-.028-2.863 0-4.298-.017-.4-.005-.548.12-.539.527a75.817 75.817 0 0 1 0 3.127c-.009.417.167.535.551.532 1.644-.01 3.288.014 4.93-.012.5-.01.587.195.593.634.007.438-.138.586-.586.586a288.699 288.699 0 0 0-6.102 0c-.463.006-.58-.155-.575-.594.02-1.799.008-3.589.008-5.38z"/></g><g><path d="M24.73 33.772c0-1.775.015-3.549-.01-5.322-.006-.479.157-.604.62-.61.49-.005.607.172.6.628-.025 1.433 0 2.865-.016 4.3 0 .36.107.476.472.471 1.465-.017 2.93-.017 4.396 0 .391.006.51-.122.505-.502-.016-1.448.013-2.897-.016-4.345-.01-.505.23-.541.627-.545.398-.004.586.086.586.54-.015 3.629-.015 7.258 0 10.888 0 .528-.274.507-.644.525-.424.02-.572-.121-.565-.556.022-1.415 0-2.833.015-4.247.006-.424-.14-.577-.563-.572-1.416.016-2.832.016-4.247 0-.417-.005-.571.128-.564.562.023 1.432-.009 2.865.017 4.299.01.483-.231.516-.604.514-.374-.002-.619-.022-.613-.508.018-1.842.004-3.682.004-5.52z"/></g><g><path d="M75.03 27.66c1.104.071 2.08.349 2.873 1.124.563.55.787 1.255.879 2.011.032.258-.077.381-.356.4-.747.054-.768.045-.93-.683-.12-.537-.415-.962-.911-1.204-1.044-.505-2.112-.53-3.14.015-1.147.608-1.222 2.025-.148 2.751.411.279.891.462 1.352.66.732.314 1.486.58 2.21.91 1.61.738 2.199 1.78 2.025 3.498-.13 1.27-1.184 2.365-2.67 2.696-1.488.33-2.921.195-4.153-.803-.678-.55-1.008-1.295-1.021-2.178 0-.336.169-.446.457-.399.288.047.71-.208.743.352.055.96.616 1.504 1.482 1.778a3.88 3.88 0 0 0 2.626-.06c.782-.301 1.25-.85 1.35-1.695.106-.906-.277-1.563-1.075-1.939-.838-.39-1.71-.712-2.557-1.085a10.237 10.237 0 0 1-1.435-.722c-.977-.63-1.41-1.57-1.26-2.717.147-1.128.817-1.91 1.874-2.297.57-.21 1.191-.28 1.785-.413z"/></g><g><path d="M31.3 15.145c0-1.35.025-2.701-.011-4.05-.016-.572.306-.521.684-.538.414-.017.621.065.616.554-.021 2.554-.007 5.109-.01 7.664 0 2.182-1.247 3.574-3.408 3.838-1.232.15-2.36-.083-3.322-.894-.812-.684-1.173-1.608-1.18-2.638-.029-2.669 0-5.337-.019-8.005 0-.472.213-.52.596-.526.407-.005.627.057.623.551-.021 2.458-.012 4.915-.006 7.371.004.324.03.648.077.97.123.91.64 1.52 1.5 1.805.777.264 1.62.257 2.392-.02.92-.324 1.466-1.108 1.47-2.084.003-1.329-.001-2.661-.001-3.998z"/></g><g><path d="M16.751 29.16v.605c0 3.14-.002 6.282-.006 9.423 0 .19-.078.53-.162.544-.332.047-.67.038-1-.029-.064-.012-.105-.315-.105-.488-.006-3.127-.006-6.251 0-9.374v-.684c-.209-.01-.38-.027-.553-.028-1.074 0-2.15-.025-3.224.009-.519.016-.54-.254-.53-.64.01-.36-.028-.662.51-.658 2.963.02 5.924.014 8.892.005.352 0 .488.11.488.477 0 .806.017.806-.793.806h-2.931c-.177.008-.352.021-.586.032z"/></g><g><path d="M77.846 22.466c-.154-.031-.306-.267-.39-.441a146.92 146.92 0 0 1-1.699-3.727c-.18-.411-.404-.61-.879-.581-.607.037-1.218.024-1.83.01l-.124-.003c-.37-.008-.513.118-.506.512.011.605.01 1.21.007 1.815a77.74 77.74 0 0 0 .01 1.942c.011.489-.238.51-.607.512-.37.002-.61-.034-.608-.514.014-3.647.014-7.292 0-10.934 0-.39.153-.502.524-.497.656.01 1.312.008 1.969.007.483-.001.966-.002 1.45.001A3.62 3.62 0 0 1 78.57 13.1a3.531 3.531 0 0 1-1.39 4c-.39.261-.466.45-.256.884.473.972.918 1.958 1.364 2.944l.492 1.086c.047.092.08.189.125.314l.056.159c-.126 0-.246.004-.363.008-.27.01-.519.018-.75-.029zm-1.58-10.4a2.17 2.17 0 0 0-.689-.202c-.769-.096-1.552-.085-2.332-.075l-.487.006c-.112 0-.301.233-.307.365-.024.492-.02.985-.017 1.478l.002.522.002.528c.003.474.005.95-.01 1.423-.007.236.052.355.207.4a.71.71 0 0 0 .218.023c.463-.01.926-.008 1.39-.006.318.001.636.002.955 0 1.185-.008 2.224-.954 2.308-2.091.078-1.043-.407-1.965-1.24-2.37z"/></g><g><path d="M48.38 11.122c0-.424.126-.571.557-.562.68.015 1.359.012 2.038.01.476-.002.951-.004 1.427 0 2.01.018 3.712 1.69 3.732 3.692.017 1.512.017 3.025 0 4.538-.022 2.01-1.715 3.683-3.725 3.698-.467.003-.935.002-1.403 0-.687-.002-1.374-.004-2.06.01-.421.007-.57-.12-.566-.553.015-1.333.012-2.667.01-4l-.001-1.417.001-1.42c.002-1.333.005-2.667-.01-3.996zm1.192 1.215v.009c.014 1.017.012 2.034.01 3.051l-.002 1.144v4.195a.407.407 0 0 1 0 .046.969.969 0 0 0-.006.091c-.008.317.172.436.514.43.294-.003.588-.001.883 0 .438.003.876.006 1.312-.008 1.564-.048 2.633-1.148 2.655-2.712v-4.151c0-1.325-.873-2.408-2.186-2.575-.546-.07-1.1-.072-1.656-.075-.323-.001-.647-.003-.969-.018-.43-.018-.559.162-.555.573z"/></g><g><path d="M90.598 36.908c-.276 1.843-1.98 3.119-3.945 3.075-1.74-.04-3.433-1.466-3.55-3.235a44.738 44.738 0 0 1 0-5.791c.111-1.727 1.8-3.127 3.467-3.21 2.329-.125 3.849 1.59 4.035 3.08.087.703.105 1.414.123 2.132.007.315.015.631.029.949-.015.308-.021.62-.028.931-.014.691-.029 1.387-.131 2.069zm-6.336-.697c0 1.375 1.06 2.468 2.483 2.573 1.255.092 2.563-.913 2.667-2.211.086-1.082.088-2.176.09-3.27.002-.387.003-.774.007-1.161a6.379 6.379 0 0 0-.083-1.065c-.112-.704-.549-1.312-1.138-1.697a2.628 2.628 0 0 0-1.661-.431 2.583 2.583 0 0 0-2.364 2.53v2.343h-.001z"/></g><g><path d="M36.657 31.42c.02-1.83 1.513-3.486 3.294-3.66 2.03-.195 3.852 1.054 4.25 2.931.064.318.097.64.097.965.01 1.497.006 2.994 0 4.494 0 1.959-1.535 3.648-3.47 3.828-1.934.18-3.81-1.14-4.11-3.048-.109-.69-.08-1.4-.053-2.11.013-.32.026-.641.026-.96l-.034.002-.001-.814c-.002-.543-.004-1.086.001-1.629zm2.978-2.344a2.617 2.617 0 0 0-1.779 2.428c-.003.521-.002 1.042-.001 1.563a377.118 377.118 0 0 1-.002 1.716c-.003.518-.006 1.036.001 1.552.03 1.452 1.544 2.679 2.955 2.408a3.48 3.48 0 0 0 .467-.123c1.152-.39 1.827-1.343 1.837-2.65.01-1.384.01-2.766 0-4.147a4.242 4.242 0 0 0-.098-.868c-.276-1.245-1.524-2.13-2.802-2.005-.198.02-.392.063-.578.126z"/></g><g><path d="M102.709 22.478c-.182-.045-.416-.195-.478-.35a23.545 23.545 0 0 1-.638-1.944c-.092-.314-.238-.442-.586-.436-1.27.02-2.54.017-3.81 0-.313 0-.472.098-.558.402-.07.24-.15.476-.23.713-.113.334-.226.667-.307 1.007-.115.483-.346.7-.846.625a4.311 4.311 0 0 0-.586 0c.02-.086.037-.165.053-.241.031-.15.06-.283.1-.412l1.096-3.425c.778-2.43 1.557-4.862 2.324-7.296.138-.436.345-.586.8-.57h.013c.447.017.758.028.928.577.772 2.476 1.564 4.948 2.355 7.42.368 1.148.735 2.295 1.1 3.443.029.088.05.178.077.292l.05.21c-.11 0-.212.004-.309.008-.206.01-.383.017-.548-.023zm-2.114-5.395l-.266-.83-1.13-3.535h-.17a9533.684 9533.684 0 0 1-1.833 5.735v.002l2.968-.002h.87l-.275-.859-.164-.51z"/></g><g><path d="M60.5 28.427c-.006-.452.133-.602.586-.586.544.022 1.088.03 1.632.037.707.01 1.414.019 2.12.06 1.689.106 3.105 1.585 3.204 3.262.107 1.823-1.116 3.506-2.848 3.77-.67.101-1.353.103-2.037.106-.245 0-.49.002-.734.007l-.046.001c-.662.014-.665.014-.666.693 0 .336-.002.671-.004 1.007-.005.804-.01 1.608.013 2.412.013.489-.177.6-.628.6-.45 0-.599-.121-.592-.586.017-1.298.014-2.6.011-3.904l-.002-1.505.002-1.474c.003-1.299.006-2.599-.01-3.9zm2.916.706c-.121 0-.243.001-.364.003-.303.003-.605.006-.905-.01-.185-.01-.3.032-.365.126-.05.071-.071.173-.07.305V33.465c0 .277.118.434.407.426.274-.007.547-.01.821-.011.638-.006 1.275-.01 1.906-.077.634-.067 1.192-.44 1.557-.95a2.28 2.28 0 0 0 .441-1.45c-.077-1.264-1.081-2.254-2.306-2.27h-.792z"/></g></g></g>
  </symbol>

  <symbol id="ebay" viewBox="0 0 79 32">
    <g><g><g/><g><path d="M19.73 15.178v2.069H4.065c0 3.296 2.504 5.648 5.985 5.648 4.275 0 5.154-3 5.154-3h4.1s-.543 5.573-9.004 5.573C3.111 25.468.01 21.934.01 16.322c0-7.084 4.612-9.432 10.146-9.432 7.504 0 9.575 5.027 9.575 8.288zm-15.576-.571h11.433c0-3.043-2.26-5.073-5.574-5.073-2.91 0-5.859 1.842-5.859 5.073z"/></g><g><path  d="M23.73.03v9.86s1.696-2.947 7.154-2.947c5.829 0 9.28 4.117 9.28 9.235 0 5.502-3.757 9.343-9.289 9.343-5.253 0-7.185-3.023-7.185-3.023 0 1.145-.14 2.397-.14 2.397h-3.91s.089-1.744.089-2.985V.03zm0 16.184c0 3.47 2.163 6.6 6.172 6.6 3.359 0 6.118-2.624 6.118-6.636 0-3.74-2.389-6.529-6.145-6.529-4.204 0-6.145 3.332-6.145 6.565z"/></g><g><path  d="M58.46 13.727v8.614c0 .997.143 2.555.143 2.555H54.92s-.098-1.257-.098-2.532c0 0-1.87 3.206-7.672 3.206-4.258 0-7.409-2.05-7.409-5.819 0-3.829 3.41-5.716 9.86-5.716h4.86v-.857c0-2.41-2.122-3.662-4.86-3.662-4.212 0-4.43 2.661-4.43 2.661h-4.144c0-.728.534-5.287 8.86-5.287 4.018 0 8.574 1.189 8.574 6.837zm-4 2.88c-6.293 0-10.576.02-10.576 3.144 0 1.717 1.272 3.198 4.238 3.198 5.417 0 6.337-3.707 6.337-5.198z"/></g><g><path  d="M56.23 7.6h4.662l6.691 13.405L74.26 7.6h4.223l-12.16 23.865h-4.43l3.51-6.653z"/></g></g></g>
  </symbol>

  <symbol id="tesla" viewBox="0 0 121 17">
    <g><g><g><g><path d="M103.48 7.12v9.5h3.028v-6.333h11.073v6.333h3.028v-9.5z"/></g><g><path d="M106.16 4.037h11.68c1.644-.304 2.812-1.779 3.158-3.167H102.96c.39 1.388 1.6 2.82 3.2 3.167z"/></g></g><g><g><path d="M94.265 16.622c1.514-.65 2.336-1.778 2.682-3.08H83.32V.92H80.25v15.702h14.015"/></g></g><g><g><path d="M57.543 4h10.814c1.644-.477 2.985-1.735 3.33-3.08H54.559v9.283h14.015v3.253H57.586c-1.73.477-3.2 1.648-3.936 3.167h17.951v-9.5H57.586z"/></g></g><g><g><path d="M30.898 4.037h11.679A4.193 4.193 0 0 0 44.61 2.91 4.21 4.21 0 0 0 45.734.87H27.74a4.34 4.34 0 0 0 1.14 2.023 4.322 4.322 0 0 0 2.018 1.144"/></g><g><path d="M30.898 10.247h11.679A4.193 4.193 0 0 0 44.61 9.12a4.21 4.21 0 0 0 1.123-2.04H27.74a4.34 4.34 0 0 0 1.14 2.023 4.322 4.322 0 0 0 2.018 1.144"/></g><g><path d="M30.898 16.617h11.679a4.193 4.193 0 0 0 2.034-1.127 4.21 4.21 0 0 0 1.123-2.04H27.74c.185.768.578 1.47 1.135 2.029a4.28 4.28 0 0 0 2.023 1.138"/></g></g><g><g><path d="M.49.913a4.34 4.34 0 0 0 1.15 1.999c.555.55 1.25.938 2.008 1.125h4.93l.26.086v12.45h3.071V4.122l.26-.086H17.1c1.644-.434 2.812-1.736 3.158-3.124V.87L.49.913"/></g></g></g></g>
  </symbol>

  <symbol id="avast" viewBox="0 0 76 25">
    <g><g><g/><g><g><g><g><path d="M22.894 16.815c-.77-.724-1.274-.834-1.903-1.29-1.918-1.4-2.374-4.34-.912-6.243.425-.55.944-.927 1.525-1.32.614-.41 1.164-.991 1.463-1.604.582-1.227.44-2.784-.456-3.947-.85-1.101-2.202-1.683-3.664-1.4-.692.126-1.274.409-1.871.944-.598.534-.755 1.1-1.447 1.777-1.085 1.069-2.39 1.588-3.947 1.493-.755-.047-1.4-.235-2.155-.66C8.71 4.109 8.38 3.543 7.751 3.4c-.66-.157-1.384.032-1.825.535-.597.692-.518 1.32-.251 2.139.251.77.456 1.525.503 2.343a6.834 6.834 0 0 1-.283 2.39c-.425 1.415-1.447 2.736-2.437 3.617-.818.723-1.384.833-1.919 1.336a2.566 2.566 0 0 0-.849 1.903c0 1.32.944 2.422 2.186 2.642.975.188 1.903-.268 2.201-.362 2.029-.645 4.576-.566 6.416-.031 1.525.44 2.83 1.226 4.057 2.217.598.472 1.038 1.116 1.667 1.557 1.604 1.132 4.356 1.368 6.117-.912 1.195-1.51 1.478-4.168-.44-5.96z"/></g><g><path fill="#fff" d="M16.112 9.322v6.148c0 .33-.236.818-.802.818-.566 0-.817-.487-.817-.786v-.676c-.52.723-1.368 1.384-2.58 1.384-.911 0-1.698-.362-2.358-1.117-.645-.739-.975-1.635-.975-2.689 0-1.038.33-1.95.975-2.689.645-.739 1.43-1.116 2.359-1.116 1.132 0 1.965.534 2.579 1.368v-.63c0-.345.22-.817.817-.817.346 0 .802.283.802.802zm-1.62 3.05c0-1.163-.833-2.342-2.138-2.342-1.227 0-2.139 1.053-2.139 2.343 0 1.21.897 2.343 2.139 2.343 1.258 0 2.139-1.117 2.139-2.343z"/></g><g><g><path d="M46.973 7.084c-.755-.299-1.321.267-1.463.645l-2.736 7.17-2.736-7.17c-.141-.362-.708-.944-1.462-.645-.818.314-.77 1.085-.645 1.43 0 0 2.28 5.976 3.02 7.91.424 1.117 1.257 1.353 1.808 1.353.55 0 1.383-.236 1.808-1.352l3.02-7.91c.172-.346.204-1.117-.614-1.431z"/></g><g><path d="M36.481 8.122v8.523c0 .44-.33 1.117-1.116 1.117s-1.132-.66-1.132-1.085v-.944c-.724 1.007-1.887 1.919-3.57 1.919-1.274 0-2.374-.52-3.27-1.557-.897-1.038-1.353-2.28-1.353-3.727 0-1.462.456-2.705 1.352-3.743.897-1.022 1.997-1.54 3.271-1.54 1.573 0 2.72.754 3.57 1.902v-.88c0-.472.33-1.117 1.148-1.117.487 0 1.116.409 1.1 1.132zm-2.264 4.246c0-1.62-1.148-3.24-2.956-3.24-1.683 0-2.957 1.463-2.957 3.24 0 1.683 1.243 3.255 2.957 3.255 1.73 0 2.956-1.541 2.956-3.255z"/></g><g><path d="M58.571 8.122v8.523c0 .44-.33 1.117-1.116 1.117s-1.132-.66-1.132-1.085v-.944c-.724 1.007-1.887 1.919-3.57 1.919-1.274 0-2.374-.52-3.27-1.557-.897-1.038-1.353-2.28-1.353-3.727 0-1.462.456-2.705 1.352-3.743.897-1.022 1.997-1.54 3.271-1.54 1.573 0 2.72.754 3.57 1.902v-.88c0-.472.33-1.117 1.148-1.117.487 0 1.1.409 1.1 1.132zm-2.264 4.246c0-1.62-1.148-3.24-2.956-3.24-1.683 0-2.957 1.463-2.957 3.24 0 1.683 1.243 3.255 2.957 3.255 1.73 0 2.94-1.541 2.956-3.255z"/></g><g><g><path d="M60.476 16.515c-.252-.141-.456-.44-.456-.833 0-.535.409-.96.96-.96.204 0 .377.063.518.142 1.007.676 2.044 1.006 2.988 1.006 1.022 0 1.62-.44 1.62-1.116v-.047c0-.802-1.101-1.038-2.328-1.416-1.54-.44-3.255-1.1-3.255-3.097v-.048c0-1.965 1.636-3.176 3.696-3.176 1.1 0 2.264.315 3.27.85.33.172.567.487.567.911 0 .55-.44.96-.991.96a.917.917 0 0 1-.472-.126c-.85-.44-1.714-.708-2.437-.708-.928 0-1.463.44-1.463 1.022v.047c0 .77 1.117 1.038 2.343 1.431 1.51.472 3.224 1.195 3.224 3.067v.047c0 2.186-1.698 3.27-3.853 3.27-1.29.016-2.736-.392-3.931-1.226z"/></g></g><g><g><path d="M70.448 14.747v-5.41h-.456a1.02 1.02 0 0 1-1.022-1.022 1.02 1.02 0 0 1 1.022-1.022h.456V5.69c0-.644.472-1.179 1.132-1.179.645 0 1.117.535 1.117 1.18v1.603h1.777c.566 0 1.038.456 1.038 1.022 0 .567-.472 1.023-1.038 1.023h-1.777v5.032c0 .927.534 1.29 1.336 1.29.284 0 .52-.064.598-.064.535 0 1.006.425 1.006.975 0 .425-.298.786-.629.928a4.885 4.885 0 0 1-1.635.267c-1.745.016-2.925-.755-2.925-3.019z"/></g></g></g></g></g></g></g></g>
  </symbol>

  <symbol id="ogilvy" viewBox="0 0 82 32">
    <g><g><path d="M12.049 1.125c6.704 0 11.375 4.831 11.361 10.894 0 6.759-5.25 11.149-11.428 11.149C5.292 23.168.62 18.349.62 12.273c0-6.758 5.25-11.148 11.429-11.148zm0 20.744c4.12 0 6.852-4.283 6.852-9.676 0-5.648-2.881-9.743-6.906-9.743-4.12 0-6.852 4.27-6.852 9.676 0 5.648 2.88 9.743 6.906 9.743zm69.34-12.38v.95l-.673.121c-.646.134-1.036.442-1.346 1.138l-6.663 15.618c-1.266 2.918-2.773 4.15-4.308 4.15-1.063 0-1.75-.576-1.75-1.406 0-.723.579-1.405 1.535-1.405.377 0 .74.053 1.077.053.807 0 1.44-.374 2.301-2.449l1.32-3.118-4.914-11.925c-.256-.589-.552-.736-.956-.736h-.188c-.485 0-.767.254-1.01.856L61.116 22.82H58.99l-4.698-11.483c-.188-.428-.47-.669-.929-.763l-.686-.147V9.49h6.946v.924l-1.225.24c-.43.094-.552.402-.31 1.098l2.773 7.147c.081.281.243.281.364 0l2.733-7.147c.282-.669.12-1.003-.31-1.097l-1.238-.241v-.924h10.944v.924l-1.225.24c-.431.094-.593.402-.31 1.098l2.639 6.786c.08.28.242.28.363 0l2.84-6.786c.27-.669.149-1.003-.282-1.097l-1.239-.241v-.924zM33.062 21.642c2.921-.362 5.035 1.07 5.021 3.68 0 3.306-2.826 6.17-7.282 6.17-3.958 0-5.896-1.793-5.896-3.814 0-.884.525-1.486 1.386-1.486.74.04 1.198.549 1.198 1.285l-.04.602c0 1.218.902 2.075 3.325 2.075 3.056 0 4.954-1.62 4.954-3.64 0-1.152-.74-1.955-2.975-1.674l-4.483.55c-3.11.36-4.765-1.138-4.765-3.213 0-2.048 1.4-3.36 3.863-3.694-1.656-.91-2.611-2.476-2.611-4.149 0-3.64 3.311-5.313 6.084-5.313a7.24 7.24 0 0 1 2.867.549c0-.201-.04-.415-.04-.696 0-3.453 2.692-5.715 6.206-5.715 2.544 0 3.93 1.138 3.93 2.663 0 1.004-.726 1.928-1.897 1.928-1.145 0-1.939-.884-1.939-1.834 0-.174.04-.308.04-.455 0-.562-.255-.683-1.05-.683-1.911 0-3.755 1.526-3.755 4.216-.04.643.08 1.299.363 1.887.808.87 1.239 1.928 1.239 3.092 0 3.64-3.298 5.313-6.085 5.313h-.054c-3.85 0-4.954.803-4.954 1.807 0 .857.539 1.405 2.221 1.191zm-4.846-7.535c0 2.476 1.158 4.095 2.639 4.095 1.534 0 2.517-1.847 2.517-3.975 0-2.476-1.171-4.095-2.612-4.095-1.575 0-2.557 1.86-2.544 3.975zm23.374 7.16c0 .283.162.431.365.472l1.505.148v.982H38.62v-.982l1.26-.148c.217-.027.366-.175.366-.458v-9.315c0-.242-.094-.43-.338-.525l-1.545-.498v-.646l5.434-1.373v12.263c0 .35.285.592.691.592l1.464.027 1.382-.027c.407 0 .691-.256.691-.592V3.056c0-.243-.094-.431-.338-.525l-1.545-.498v-.647L51.59 0z"/></g></g>
  </symbol>

  <symbol id="nissan" viewBox="0 0 38 32">
    <g><g><g><g><g><path d="M22.305 17.008c-.03.007-.15.007-.202.007h-3.854v.896h3.921c.03 0 .262 0 .306-.007.8-.075 1.165-.74 1.165-1.322 0-.597-.38-1.24-1.105-1.307-.142-.015-.261-.015-.314-.015h-2.561c-.112 0-.24-.007-.284-.022-.201-.052-.276-.232-.276-.381 0-.134.075-.314.284-.373.06-.015.127-.023.268-.023h3.697v-.881h-3.756c-.157 0-.277.007-.374.022-.642.09-1.09.605-1.09 1.262 0 .538.336 1.165 1.075 1.27.135.015.321.015.404.015h2.494c.045 0 .157 0 .18.007.283.038.38.247.38.434 0 .179-.112.373-.358.418z"/></g><g><path d="M15.005 17.008c-.03.007-.15.007-.195.007h-3.86v.896h3.92c.03 0 .262 0 .306-.007.8-.075 1.165-.74 1.165-1.322 0-.597-.38-1.24-1.105-1.307-.142-.015-.261-.015-.314-.015h-2.561c-.112 0-.24-.007-.284-.022-.201-.052-.276-.232-.276-.381 0-.134.075-.314.284-.373.06-.015.127-.023.268-.023h3.697v-.881h-3.756c-.157 0-.277.007-.374.022-.642.09-1.09.605-1.09 1.262 0 .538.336 1.165 1.075 1.27.135.015.321.015.404.015h2.494c.045 0 .157 0 .18.007.283.038.38.247.38.434 0 .179-.105.373-.358.418z"/></g><g><path d="M8.94 13.55h-.97v4.384h.97z"/></g><g><path d="M5.822 17.934V13.55H4.85v3.27l-3.234-3.27H.37v4.384h.97v-3.286l3.257 3.286z"/></g><g><path d="M37.05 13.55v3.27l-3.233-3.27H32.57v4.384h.97v-3.286l3.25 3.286h1.224V13.55z"/></g><g><path d="M28.559 13.55l2.733 4.384H30.12l-.486-.784h-3.189l-.485.784h-1.18l2.733-4.384zm-.516 1.008l-1.097 1.763h2.188z"/></g><g><path d="M5.774 11.06c1.957-5.713 7.348-9.551 13.427-9.551 6.08 0 11.478 3.838 13.428 9.551l.015.045h4.279v-.515l-1.778-.21c-1.097-.127-1.329-.612-1.628-1.224l-.074-.15C30.873 3.54 25.28 0 19.2 0 13.115 0 7.53 3.54 4.96 9.021l-.075.15c-.298.612-.53 1.097-1.628 1.224l-1.777.21v.515h4.272z"/></g><g><path d="M32.646 20.377l-.015.045c-1.956 5.713-7.348 9.544-13.427 9.544S7.726 26.128 5.777 20.415l-.015-.045H1.49v.515l1.777.21c1.098.126 1.33.612 1.628 1.224l.075.15c2.569 5.48 8.162 9.02 14.241 9.02 6.08 0 11.673-3.54 14.242-9.013l.074-.15c.3-.612.53-1.097 1.628-1.224l1.778-.21v-.515z"/></g></g></g></g></g>
  </symbol>
</svg>